<?xml version="1.0" encoding="UTF-8"?>
<svg width="67px" height="25px" viewBox="0 0 67 25" version="1.1" xmlns="http://www.w3.org/2000/svg" xmlns:xlink="http://www.w3.org/1999/xlink">
    <title>full</title>
    <g id="Page-1" stroke="none" stroke-width="1" fill="none" fill-rule="evenodd">
        <g id="full">
            <rect id="Rectangle" stroke="#979797" stroke-width="0.3" fill="#FFFFFF" x="0.15" y="0.15" width="65.7" height="24.7" rx="3"></rect>
            <g id="Group-64" transform="translate(1.000000, 0.000000)">
                <g id="Group-66" transform="translate(0.000000, 8.000000)">
                    <rect id="Rectangle" fill="#C78282" x="0" y="1" width="27" height="7"></rect>
                    <text id="5" font-family="Verdana" font-size="7" font-weight="normal" fill="#FFFFFF">
                        <tspan x="12" y="7">5</tspan>
                    </text>
                    <g id="Group-58" transform="translate(4.000000, 2.000000)" stroke="#FFFFFF" stroke-width="1.5">
                        <line x1="0.357142857" y1="4.82142857" x2="4.64285714" y2="0.535714286" id="Path-184"></line>
                        <line x1="4.74621193" y1="4.693866" x2="0.386354351" y2="0.483600473" id="Path-184"></line>
                    </g>
                </g>
                <g id="Group-67">
                    <rect id="Rectangle" fill="#FFFFFF" x="0" y="1" width="27" height="7"></rect>
                    <text id="543" font-family="Verdana" font-size="7" font-weight="normal" fill="#525252">
                        <tspan x="11" y="7">543</tspan>
                    </text>
                    <g id="Group-62" transform="translate(1.000000, 2.000000)">
                        <rect id="Rectangle" stroke="#525252" stroke-width="0.7" x="1.35" y="0.35" width="6.3" height="3.3" rx="0.5"></rect>
                        <circle id="Oval" fill="#525252" cx="0.75" cy="4.75" r="1"></circle>
                        <circle id="Oval" fill="#525252" cx="6.75" cy="4.75" r="1"></circle>
                        <circle id="Oval" fill="#525252" cx="8.25" cy="4.75" r="1"></circle>
                        <circle id="Oval" fill="#525252" cx="2.25" cy="4.75" r="1"></circle>
                    </g>
                </g>
                <g id="Group-68" transform="translate(28.000000, 0.000000)">
                    <rect id="Rectangle" fill="#68C168" x="0" y="1" width="36" height="7"></rect>
                    <polygon id="Triangle" fill="#FFFFFF" transform="translate(5.000000, 4.500000) rotate(180.000000) translate(-5.000000, -4.500000) " points="5 2 8 7 2 7"></polygon>
                    <text id="12345" font-family="Verdana" font-size="7" font-weight="normal" fill="#FFFFFF">
                        <tspan x="11" y="7">12345</tspan>
                    </text>
                </g>
                <g id="Group-69" transform="translate(28.000000, 8.000000)">
                    <rect id="Rectangle" fill="#EFAB24" x="0" y="1" width="36" height="7"></rect>
                    <polygon id="Triangle" fill="#FFFFFF" points="5 2 8 7 2 7"></polygon>
                    <text id="12345" font-family="Verdana" font-size="7" font-weight="normal" fill="#FFFFFF">
                        <tspan x="11" y="7">12345</tspan>
                    </text>
                </g>
                <g id="Group-70" transform="translate(28.000000, 16.000000)">
                    <rect id="Rectangle" fill="#67ABD1" x="0" y="1" width="36" height="7"></rect>
                    <text id="42345" font-family="Verdana" font-size="7" font-weight="normal" fill="#FFFFFF">
                        <tspan x="11" y="7">42345</tspan>
                    </text>
                    <g id="Group-59" transform="translate(2.000000, 1.500000)">
                        <path d="M1.092237,2.01552773 L4.32058775,2.01552773 C4.45873219,2.01552773 4.57901791,2.10986358 4.61194262,2.2440271 L5.29987087,5.04723679 C5.33935957,5.20814764 5.24092747,5.37060358 5.08001662,5.41009228 C5.05661672,5.41583479 5.03261022,5.41873741 5.008516,5.41873741 L0.385078795,5.41873741 C0.21939337,5.41873741 0.0850787949,5.28442284 0.0850787949,5.11873741 C0.0850787949,5.09399478 0.0881397396,5.06934718 0.0941918915,5.04535615 L0.801350098,2.24214646 C0.834964046,2.10889913 0.954815207,2.01552773 1.092237,2.01552773 Z" id="Path-184" stroke="#FFFFFF" fill="#FFFFFF" stroke-linecap="round"></path>
                        <text id="T" font-family="Verdana-Bold, Verdana" font-size="3" font-weight="bold" fill="#67ABD1">
                            <tspan x="1.7" y="5">T</tspan>
                        </text>
                        <circle id="Oval" stroke="#FFFFFF" stroke-width="0.7" cx="2.70833015" cy="1.125" r="1"></circle>
                    </g>
                </g>
                <g id="Group-65" transform="translate(0.000000, 16.000000)">
                    <rect id="Rectangle" fill="#8B8B8B" x="0" y="1" width="27" height="7"></rect>
                    <text id="215" font-family="Verdana" font-size="7" font-weight="normal" fill="#FFFFFF">
                        <tspan x="12" y="7">215</tspan>
                    </text>
                    <g id="Group-57" transform="translate(2.000000, 3.000000)" stroke="#FFFFFF" stroke-width="0.7">
                        <line x1="7.44304466" y1="1.5" x2="0.443044662" y2="1.5" id="Path-184" stroke-linecap="square" stroke-dasharray="1"></line>
                        <polyline id="Path-344" points="1.54287529 0 2.29594121e-13 1.51549721 1.54287529 3"></polyline>
                        <polyline id="Path-344" transform="translate(7.214482, 1.500000) scale(-1, 1) translate(-7.214482, -1.500000) " points="7.98591995 0 6.44304466 1.51549721 7.98591995 3"></polyline>
                    </g>
                </g>
            </g>
        </g>
    </g>
</svg>