<?xml version="1.0" encoding="UTF-8"?>
<svg width="200px" height="250px" viewBox="0 0 200 250" version="1.1" xmlns="http://www.w3.org/2000/svg" xmlns:xlink="http://www.w3.org/1999/xlink">
    <title>big_legend</title>
    <g id="big_legend" stroke="none" stroke-width="1" fill="none" fill-rule="evenodd">
        <rect id="Rectangle" stroke="#B3BDC7" stroke-width="2" fill="#FFFFFF" x="1" y="1" width="198" height="248" rx="8"></rect>
        <g id="zd_vkz" transform="translate(21.000000, 146.000000)" fill="#404040">
            <path d="M8.67980574,0.336628017 L9.77226339,1.34242342 C10.1835852,1.72111596 10.4176147,2.25469177 10.4176147,2.81379253 L10.4176147,11.9946769 L5.6,11.9946769 L5.6,2.80944984 C5.6,2.25288539 5.83191819,1.72149271 6.23999729,1.34302813 L7.32248006,0.339101712 C7.70500601,-0.0156641225 8.29598923,-0.016741176 8.67980574,0.336628017 Z M8,3.18785471 C7.1163444,3.18785471 6.4,3.90419911 6.4,4.78785471 C6.4,5.67151031 7.1163444,6.38785471 8,6.38785471 C8.8836556,6.38785471 9.6,5.67151031 9.6,4.78785471 C9.6,3.90419911 8.8836556,3.18785471 8,3.18785471 Z" id="Combined-Shape"></path>
            <path d="M12.9676486,7.19467685 C13.3507359,7.19467685 13.7257638,7.30469876 14.0481352,7.5116591 L15.0804866,8.17442204 C15.6535218,8.54230697 16,9.1764782 16,9.8574398 L16,16.7946769 L0,16.7946769 L0,9.84412099 C3.61589409e-16,9.17045899 0.339140459,8.54205875 0.90225965,8.17230577 L1.89133744,7.52286163 C2.21741549,7.30875362 2.59898915,7.19467685 2.98907779,7.19467685 L12.9676486,7.19467685 Z M1.87103348,12.7878547 C1.15701116,12.7878547 0.8,13.2023262 0.8,14.0312691 L0.8,14.0312691 L0.8,15.9878547 L2.94206695,15.9878547 L2.94206695,14.0312691 C2.94206695,13.2023262 2.58505579,12.7878547 1.87103348,12.7878547 Z M14.1270335,12.7878547 C13.4130112,12.7878547 13.056,13.2023262 13.056,14.0312691 L13.056,14.0312691 L13.056,15.9878547 L15.198067,15.9878547 L15.198067,14.0312691 C15.198067,13.2023262 14.8410558,12.7878547 14.1270335,12.7878547 Z M4.93503348,12.7878547 C4.22101116,12.7878547 3.864,13.2023262 3.864,14.0312691 L3.864,14.0312691 L3.864,15.9878547 L6.00606695,15.9878547 L6.00606695,14.0312691 C6.00606695,13.2023262 5.64905579,12.7878547 4.93503348,12.7878547 Z M11.0630335,12.7878547 C10.3490112,12.7878547 9.992,13.2023262 9.992,14.0312691 L9.992,14.0312691 L9.992,15.9878547 L12.134067,15.9878547 L12.134067,14.0312691 C12.134067,13.2023262 11.7770558,12.7878547 11.0630335,12.7878547 Z M7.99903348,12.7878547 C7.28501116,12.7878547 6.928,13.2023262 6.928,14.0312691 L6.928,14.0312691 L6.928,15.9878547 L9.07006695,15.9878547 L9.07006695,14.0312691 C9.07006695,13.2023262 8.71305579,12.7878547 7.99903348,12.7878547 Z" id="Combined-Shape"></path>
        </g>
        <text id="Вокзал" font-family="Verdana" font-size="11" font-weight="normal" fill="#6D7C8A">
            <tspan x="52.5356445" y="160">Вокзал</tspan>
        </text>
        <g id="Group-5" transform="translate(17.000000, 222.000000)">
            <text id="Двухпутный-уч.-пути" font-family="Verdana" font-size="11" font-weight="normal" fill="#6D7C8A">
                <tspan x="36" y="11">Двухпутный уч. пути</tspan>
            </text>
            <g id="Group" transform="translate(0.000000, 2.000000)">
                <line x1="25" y1="6" x2="0" y2="5.75" id="Path-5" stroke="#D0D0D0" stroke-width="10"></line>
                <line x1="25" y1="1" x2="7.89491929e-14" y2="1" id="Path-13" stroke="#797979" stroke-width="2"></line>
            </g>
        </g>
        <g id="Group-3" transform="translate(17.000000, 203.000000)">
            <text id="Однопутный-уч.-пути" font-family="Verdana" font-size="11" font-weight="normal" fill="#6D7C8A">
                <tspan x="35.5" y="11">Однопутный уч. пути</tspan>
            </text>
            <line x1="25" y1="7" x2="-3.74700271e-16" y2="7" id="Path-5" stroke="#D0D0D0" stroke-width="10"></line>
        </g>
        <g id="Group-2" transform="translate(20.000000, 61.000000)">
            <circle id="Oval" stroke="#6EA8F0" fill="#FFFDFD" cx="9" cy="9" r="8.5"></circle>
            <circle id="Oval" fill="#6EA8F0" cx="9" cy="9" r="5.625"></circle>
        </g>
        <text id="Внеклассные-станции" font-family="Verdana" font-size="11" font-weight="normal" fill="#6D7C8A">
            <tspan x="52" y="73">Внеклассные станции</tspan>
        </text>
        <circle id="Oval" stroke="#6EA8F0" stroke-width="2" fill="#FFFDFD" cx="29" cy="92" r="7"></circle>
        <g id="st" transform="translate(22.000000, 107.000000)" fill="#FFFDFD" stroke="#6EA8F0">
            <circle id="Oval" cx="6.5" cy="6.5" r="6"></circle>
        </g>
        <text id="Обозначения" font-family="Verdana" font-size="16" font-weight="normal" fill="#6D7C8A">
            <tspan x="45.7109375" y="24">Обозначения</tspan>
        </text>
        <text id="Станции-1-класса" font-family="Verdana" font-size="11" font-weight="normal" fill="#6D7C8A">
            <tspan x="52" y="96">Станции 1 класса</tspan>
        </text>
        <text id="Станции-2-класса" font-family="Verdana" font-size="11" font-weight="normal" fill="#6D7C8A">
            <tspan x="52" y="118">Станции 2 класса</tspan>
        </text>
        <text id="Станции-3-5-классов" font-family="Verdana" font-size="11" font-weight="normal" fill="#6D7C8A">
            <tspan x="52.5" y="139">Станции 3-5 классов</tspan>
        </text>
        <path d="M33.9210938,35.6483668 L24.6483668,35.6483668 C23.5437973,35.6483668 22.5437973,36.096082 21.8199396,36.8199396 C21.096082,37.5437973 20.6483668,38.5437973 20.6483668,39.6483668 L20.6483668,48.9210938 C20.6483668,50.0256633 21.096082,51.0256633 21.8199396,51.7495209 C22.5437973,52.4733785 23.5437973,52.9210938 24.6483668,52.9210938 L33.9210938,52.9210938 C35.0256633,52.9210938 36.0256633,52.4733785 36.7495209,51.7495209 C37.4733785,51.0256633 37.9210938,50.0256633 37.9210938,48.9210938 L37.9210938,39.6483668 C37.9210938,38.5437973 37.4733785,37.5437973 36.7495209,36.8199396 C36.0256633,36.096082 35.0256633,35.6483668 33.9210938,35.6483668 Z" id="Rectangle" stroke="#7FD363" stroke-width="4" fill="#9DEE81" transform="translate(29.284730, 44.284730) rotate(-45.000000) translate(-29.284730, -44.284730) "></path>
        <text id="Пассажирские-станции" font-family="Verdana" font-size="11" font-weight="normal" fill="#6D7C8A">
            <tspan x="52.5" y="49">Пассажирские станции</tspan>
        </text>
        <text id="Порт" font-family="Verdana" font-size="11" font-weight="normal" fill="#6D7C8A">
            <tspan x="52.8735352" y="195">Порт</tspan>
        </text>
        <circle id="Oval" stroke="#979797" fill="#FFFCFC" cx="29" cy="135" r="3.5"></circle>
        <g id="Group" transform="translate(20.000000, 181.000000)">
            <circle id="Oval" stroke="#87B6E0" fill="#FFFFFF" cx="9" cy="9" r="8.5"></circle>
            <path d="M8.99942876,2.45454545 C9.7017346,2.45454545 10.271066,3.01587983 10.271066,3.70832087 C10.271066,4.20074938 9.98313665,4.626873 9.56421417,4.83195995 L9.59078974,5.66276574 L11.628042,5.66276574 L11.628042,6.60035466 L9.664803,6.60035466 L9.74174698,10.6564651 C9.78345602,11.088087 9.83753372,11.4024043 9.90398008,11.5994168 C9.97042643,11.7964293 10.0604428,11.9704478 10.1740291,12.1214722 C10.3462797,12.3167543 10.5279433,12.4365976 10.7190201,12.4810021 C10.9100968,12.5254067 11.1551767,12.48772 11.4542598,12.367942 C11.7395367,12.1823496 11.945027,12.022779 12.0707307,11.8892299 C12.1964344,11.7556809 12.3411162,11.5432248 12.5047762,11.2518615 L12.5047762,11.2518615 L11.8963276,11.2518615 C12.1820824,10.8549988 12.3848986,10.5343881 12.5047762,10.2900296 C12.6246539,10.0456711 12.7589374,9.67913766 12.9076269,9.19042939 C13.3081386,9.80414492 13.5655292,10.2649727 13.6797988,10.5729127 C13.7940684,10.8808527 13.8704991,11.3196251 13.9090909,11.8892299 L13.9090909,11.8892299 L13.3117691,11.5238719 C13.1207586,12.0739496 12.851761,12.5486701 12.5047762,12.9480335 C12.1577915,13.3473969 11.5885517,13.7229744 10.7970569,14.0747662 C10.2947344,14.2524842 9.94296447,14.4236539 9.74174698,14.5882754 C9.5405295,14.7528969 9.29309009,15.0719566 8.99942876,15.5454545 L8.99942876,15.5454545 L8.99890909,15.5415455 L8.8926149,15.3736383 C8.64577228,14.993111 8.43431832,14.7308254 8.25825302,14.5867816 C8.05703553,14.4221601 7.70526557,14.2509904 7.20294314,14.0732724 C6.41144832,13.7214807 5.84220853,13.3459031 5.49522377,12.9465397 C5.14823901,12.5471763 4.87924138,12.0724558 4.68823087,11.5223782 L4.09090909,11.8877362 C4.1295009,11.3181313 4.20593159,10.8793589 4.32020118,10.5714189 C4.43447076,10.2634789 4.69186139,9.80265116 5.09237307,9.18893563 C5.24106256,9.67764391 5.37534613,10.0441773 5.49522377,10.2885358 C5.61510141,10.5328944 5.81791762,10.853505 6.10367238,11.2503677 L5.49522377,11.2503677 C5.65888378,11.541731 5.80356563,11.7541872 5.92926932,11.8877362 C6.05497301,12.0212852 6.26046329,12.1808559 6.54574017,12.3664482 C6.84482328,12.4862262 7.08990321,12.5239129 7.28097994,12.4795084 C7.47205668,12.4351038 7.65372033,12.3152605 7.82597087,12.1199785 C7.93955722,11.9689541 8.02957357,11.7949356 8.09601992,11.5979231 C8.16246628,11.4009105 8.21654398,11.0865933 8.25825302,10.6549713 L8.335197,6.59886091 L6.37195803,6.59886091 L6.37195803,5.66127198 L8.40921026,5.66127198 L8.43563866,4.83244667 C8.01617699,4.62754774 7.72779154,4.20113927 7.72779154,3.70832087 C7.72779154,3.01587983 8.29712291,2.45454545 8.99942876,2.45454545 Z" id="Combined-Shape" fill="#87B6E0" transform="translate(9.000000, 9.000000) scale(-1, 1) translate(-9.000000, -9.000000) "></path>
        </g>
        <line x1="51" y1="174" x2="154.5" y2="174" id="Path-79" stroke="#D9D9D9"></line>
    </g>
</svg>