<?xml version="1.0" encoding="UTF-8"?>
<svg width="200px" height="235px" viewBox="0 0 200 235" version="1.1" xmlns="http://www.w3.org/2000/svg" xmlns:xlink="http://www.w3.org/1999/xlink">
    <title>big_legend</title>
    <g id="big_legend" stroke="none" stroke-width="1" fill="none" fill-rule="evenodd">
        <rect id="Rectangle" stroke="#B3BDC7" stroke-width="2" fill="#FFFFFF" x="1" y="1" width="198" height="233" rx="8"></rect>
        <g id="Group-5" transform="translate(16.000000, 209.000000)">
            <text id="Двухпутный-участок-п" font-family="AvenirNext-Regular, Avenir Next" font-size="11" font-weight="normal" fill="#6D7C8A">
                <tspan x="36" y="11">Двухпутный участок пути</tspan>
            </text>
            <g id="Group" transform="translate(0.000000, 2.000000)">
                <line x1="25" y1="6" x2="0" y2="5.75" id="Path-5" stroke="#D0D0D0" stroke-width="10"></line>
                <line x1="25" y1="1" x2="7.89491929e-14" y2="1" id="Path-13" stroke="#797979" stroke-width="2"></line>
            </g>
        </g>
        <g id="Group-3" transform="translate(16.000000, 190.000000)">
            <text id="Однопутный-участок-п" font-family="AvenirNext-Regular, Avenir Next" font-size="11" font-weight="normal" fill="#6D7C8A">
                <tspan x="35.5" y="11">Однопутный участок пути</tspan>
            </text>
            <line x1="25" y1="6" x2="-3.74700271e-16" y2="6" id="Path-5" stroke="#D0D0D0" stroke-width="10"></line>
        </g>
        <g id="Group-2" transform="translate(21.000000, 61.000000)">
            <circle id="Oval" stroke="#6EA8F0" fill="#FFFDFD" cx="8" cy="8" r="7.5"></circle>
            <circle id="Oval" fill="#6EA8F0" cx="8" cy="8" r="5"></circle>
        </g>
        <text id="Внеклассные-станции" font-family="AvenirNext-Regular, Avenir Next" font-size="12" font-weight="normal" fill="#6D7C8A">
            <tspan x="52" y="73">Внеклассные станции</tspan>
        </text>
        <circle id="Oval" stroke="#6EA8F0" stroke-width="2" fill="#FFFDFD" cx="29" cy="92" r="7"></circle>
        <g id="st" transform="translate(23.000000, 108.000000)" fill="#FFFDFD" stroke="#6EA8F0">
            <circle id="Oval" cx="6" cy="6" r="5.5"></circle>
        </g>
        <text id="Обозначения" font-family="AvenirNext-Medium, Avenir Next" font-size="14" font-weight="400" fill="#6D7C8A">
            <tspan x="54.776" y="22">Обозначения</tspan>
        </text>
        <text id="Станции-1-класса" font-family="AvenirNext-Regular, Avenir Next" font-size="12" font-weight="normal" fill="#6D7C8A">
            <tspan x="49" y="96"> Станции 1 класса</tspan>
        </text>
        <text id="Станции-2-класса" font-family="AvenirNext-Regular, Avenir Next" font-size="12" font-weight="normal" fill="#6D7C8A">
            <tspan x="51" y="118">Станции 2 класса</tspan>
        </text>
        <text id="Станции-3-5-классов" font-family="AvenirNext-Regular, Avenir Next" font-size="12" font-weight="normal" fill="#6D7C8A">
            <tspan x="48.5" y="140"> Станции 3-5 классов</tspan>
        </text>
        <path d="M33.9210938,35.6483668 L24.6483668,35.6483668 C23.5437973,35.6483668 22.5437973,36.096082 21.8199396,36.8199396 C21.096082,37.5437973 20.6483668,38.5437973 20.6483668,39.6483668 L20.6483668,48.9210938 C20.6483668,50.0256633 21.096082,51.0256633 21.8199396,51.7495209 C22.5437973,52.4733785 23.5437973,52.9210938 24.6483668,52.9210938 L33.9210938,52.9210938 C35.0256633,52.9210938 36.0256633,52.4733785 36.7495209,51.7495209 C37.4733785,51.0256633 37.9210938,50.0256633 37.9210938,48.9210938 L37.9210938,39.6483668 C37.9210938,38.5437973 37.4733785,37.5437973 36.7495209,36.8199396 C36.0256633,36.096082 35.0256633,35.6483668 33.9210938,35.6483668 Z" id="Rectangle" stroke="#7FD363" stroke-width="4" fill="#9DEE81" transform="translate(29.284730, 44.284730) rotate(-45.000000) translate(-29.284730, -44.284730) "></path>
        <text id="Пассажирские-станции" font-family="AvenirNext-Regular, Avenir Next" font-size="12" font-weight="normal" fill="#6D7C8A">
            <tspan x="51.5" y="49">Пассажирские станции</tspan>
        </text>
        <text id="Порт" font-family="AvenirNext-Regular, Avenir Next" font-size="12" font-weight="normal" fill="#6D7C8A">
            <tspan x="52.25" y="178">Порт</tspan>
        </text>
        <circle id="Oval" stroke="#979797" fill="#FFFCFC" cx="29" cy="136" r="3.5"></circle>
        <g id="Group" transform="translate(20.000000, 166.000000)">
            <circle id="Oval" stroke="#87B6E0" fill="#FFFFFF" cx="9" cy="9" r="8.5"></circle>
            <path d="M8.99942876,2.45454545 C9.7017346,2.45454545 10.271066,3.01587983 10.271066,3.70832087 C10.271066,4.20074938 9.98313665,4.626873 9.56421417,4.83195995 L9.59078974,5.66276574 L11.628042,5.66276574 L11.628042,6.60035466 L9.664803,6.60035466 L9.74174698,10.6564651 C9.78345602,11.088087 9.83753372,11.4024043 9.90398008,11.5994168 C9.97042643,11.7964293 10.0604428,11.9704478 10.1740291,12.1214722 C10.3462797,12.3167543 10.5279433,12.4365976 10.7190201,12.4810021 C10.9100968,12.5254067 11.1551767,12.48772 11.4542598,12.367942 C11.7395367,12.1823496 11.945027,12.022779 12.0707307,11.8892299 C12.1964344,11.7556809 12.3411162,11.5432248 12.5047762,11.2518615 L12.5047762,11.2518615 L11.8963276,11.2518615 C12.1820824,10.8549988 12.3848986,10.5343881 12.5047762,10.2900296 C12.6246539,10.0456711 12.7589374,9.67913766 12.9076269,9.19042939 C13.3081386,9.80414492 13.5655292,10.2649727 13.6797988,10.5729127 C13.7940684,10.8808527 13.8704991,11.3196251 13.9090909,11.8892299 L13.9090909,11.8892299 L13.3117691,11.5238719 C13.1207586,12.0739496 12.851761,12.5486701 12.5047762,12.9480335 C12.1577915,13.3473969 11.5885517,13.7229744 10.7970569,14.0747662 C10.2947344,14.2524842 9.94296447,14.4236539 9.74174698,14.5882754 C9.5405295,14.7528969 9.29309009,15.0719566 8.99942876,15.5454545 L8.99942876,15.5454545 L8.99890909,15.5415455 L8.8926149,15.3736383 C8.64577228,14.993111 8.43431832,14.7308254 8.25825302,14.5867816 C8.05703553,14.4221601 7.70526557,14.2509904 7.20294314,14.0732724 C6.41144832,13.7214807 5.84220853,13.3459031 5.49522377,12.9465397 C5.14823901,12.5471763 4.87924138,12.0724558 4.68823087,11.5223782 L4.09090909,11.8877362 C4.1295009,11.3181313 4.20593159,10.8793589 4.32020118,10.5714189 C4.43447076,10.2634789 4.69186139,9.80265116 5.09237307,9.18893563 C5.24106256,9.67764391 5.37534613,10.0441773 5.49522377,10.2885358 C5.61510141,10.5328944 5.81791762,10.853505 6.10367238,11.2503677 L5.49522377,11.2503677 C5.65888378,11.541731 5.80356563,11.7541872 5.92926932,11.8877362 C6.05497301,12.0212852 6.26046329,12.1808559 6.54574017,12.3664482 C6.84482328,12.4862262 7.08990321,12.5239129 7.28097994,12.4795084 C7.47205668,12.4351038 7.65372033,12.3152605 7.82597087,12.1199785 C7.93955722,11.9689541 8.02957357,11.7949356 8.09601992,11.5979231 C8.16246628,11.4009105 8.21654398,11.0865933 8.25825302,10.6549713 L8.335197,6.59886091 L6.37195803,6.59886091 L6.37195803,5.66127198 L8.40921026,5.66127198 L8.43563866,4.83244667 C8.01617699,4.62754774 7.72779154,4.20113927 7.72779154,3.70832087 C7.72779154,3.01587983 8.29712291,2.45454545 8.99942876,2.45454545 Z" id="Combined-Shape" fill="#87B6E0" transform="translate(9.000000, 9.000000) scale(-1, 1) translate(-9.000000, -9.000000) "></path>
        </g>
        <line x1="51" y1="157" x2="154.5" y2="157" id="Path-79" stroke="#F4F4F4"></line>
    </g>
</svg>