<?xml version="1.0" encoding="UTF-8"?>
<svg width="550px" height="900px" viewBox="0 0 550 900" version="1.1" xmlns="http://www.w3.org/2000/svg" xmlns:xlink="http://www.w3.org/1999/xlink">
    <title>ust-luga</title>
    <defs>
        <linearGradient x1="50%" y1="0%" x2="50%" y2="100%" id="linearGradient-1">
            <stop stop-color="#76A0FF" offset="0%"></stop>
            <stop stop-color="#0DAB3D" offset="100%"></stop>
        </linearGradient>
    </defs>
    <g id="ust-luga" stroke="none" stroke-width="1" fill="none" fill-rule="evenodd">
        <g id="sea" transform="translate(-1.000000, -1.000000)">
            <path d="M-166.477778,187.621178 L693.522222,188.576733 C704.559233,188.588997 713.5,197.539703 713.5,208.576721 L713.5,693.598931 C713.5,704.644626 704.545695,713.598931 693.5,713.598931 L-166.5,713.598931 C-177.545695,713.598931 -186.5,704.644626 -186.5,693.598931 L-186.5,207.621165 C-186.5,196.57547 -177.545695,187.621165 -166.5,187.621165 C-166.492593,187.621165 -166.485185,187.621169 -166.477778,187.621178 Z" id="Rectangle" fill="#D8E8F7" transform="translate(263.500000, 450.598931) rotate(-90.000000) translate(-263.500000, -450.598931) "></path>
            <path d="M1.5,590.178917 C22.1490086,601.326765 39.5115676,605.133437 53.587677,601.598931 C74.7018411,596.297172 86.5802392,564.702551 102.817032,558.411309 C119.053824,552.120066 152.5,589.098931 167.348816,579.862618 C182.197632,570.626305 174.284791,556.180558 180.498169,550.598931 C184.640421,546.877846 195.033813,546.877846 211.678345,550.598931 C198.256836,492.001206 203.182475,453.86901 226.455261,436.202343 C245.444225,421.787581 250.222295,397.716623 254.887329,368.697441 C255.588936,364.333046 258.626493,358.19948 264,350.296746 L347.5,170.598931 L383.633545,0.598930692 L21.5,0.598930692 C10.454305,0.598930692 1.5,9.5532357 1.5,20.5989307 L1.5,590.178917 L1.5,590.178917 Z" id="Path-30" fill="#D0E4FA"></path>
            <path d="M1.5,436.202343 C35.6479094,400.709691 62.3145761,374.664885 81.5,358.067925 C110.278136,333.172485 110.278136,329.098931 135.650085,308.530388 C161.022035,287.961846 189.038542,268.223333 210.358887,239.598931 C224.57245,220.515996 242.452821,190.580245 264,149.79168 L328.240021,1.13686838e-13 L200.071167,1.13686838e-13 L21.4396762,0.538788607 C10.417582,0.572033466 1.5,9.51655321 1.5,20.5386976 L1.5,436.202343 L1.5,436.202343 Z" id="Path-29" fill="#CDE1F5"></path>
            <path d="M233.454834,72.5989307 C215.834055,107.48631 201.833791,133.217227 191.454041,149.79168 C175.884415,174.653359 146.330261,201.800988 146.330261,225.635155 C146.330261,237.109805 164.352373,299.198645 180.5,358.067925 C197.892852,421.476913 213.977667,481.561805 228.23584,482.598931 C246.566203,483.932264 261.949443,473.432264 274.385559,451.098931 C275.866004,287.670993 275.866004,192.504327 274.385559,165.598931 C272.164892,125.240837 258.638386,107.542261 256.5,100.598931 C250.881516,82.3557326 249.064527,59.9428311 244.774048,53.6432117 C241.913729,49.4434654 238.140657,55.7620384 233.454834,72.5989307 Z M38.1410828,193.098931 C54.1165449,183.758087 94.6548216,188.13303 109.178375,180.598931 C118.860744,175.576198 123.009579,165.307114 121.624878,149.79168 C119.229055,138.055173 119.229055,129.424374 121.624878,123.899285 C124.020701,118.374195 130.480682,112.107411 141.004822,105.098931 C148.668274,96.7655974 152.5,88.427258 152.5,80.0839127 C152.5,71.7405674 138.059458,65.91224 109.178375,62.5989307 C98.3927917,61.2655974 93,53.9315265 93,40.5967182 L93,0.598930692 L270.595,0.598 L270.545261,0.627377051 C267.748313,2.31073082 265.566559,7.38161674 264,15.8400348 C260.495854,34.7601805 260.173817,40.5425342 264,48.5461353 C267.826183,56.5497364 287.5,72.5989307 300.5,75.6441043 C309.166667,77.67422 326.333333,78.8491722 352,79.1689609 L359.5,454.598931 L347.5,631.614434 L95.6387482,687.598931 L92,631.614434 C99.9616877,613.287904 110.147514,603.663697 122.557478,602.741814 C141.172424,601.35899 139.583368,608.49619 161.5,601.598931 C183.416632,594.701671 190.201346,594.409386 195.258083,579.862618 C200.314819,565.31585 195.258083,542.449623 195.258083,497.743706 C195.258083,453.037789 124.935593,240.598931 113.876312,239.598931 C102.817032,238.598931 92.4158351,274.98393 70.2469482,291.598931 C55.4676903,302.675598 32.5520409,314.665262 1.5,327.567925 L1.5,239.598931 C15.2770804,214.82616 27.4907747,199.32616 38.1410828,193.098931 Z M274.859179,0.482232782 L275.112427,0.598930692 L270.595,0.598 L270.693036,0.5419074 C271.957863,-0.160164248 273.346577,-0.180055787 274.859179,0.482232782 Z" id="Combined-Shape" fill="#CBDDEF"></path>
        </g>
        <path d="M-155,175 L0.264221191,175 L0.264221191,175 C-9.45277913,185.077148 -15.1797485,191.642466 -16.916687,194.695953 C-19.5220947,199.276184 -22.2328966,207.026548 -24.7087708,208.753357 C-29.0322978,211.768819 -30.5871684,206.14326 -29.3733826,191.876678 C-28.8614807,184.060801 -30.8019002,180.152863 -35.1946411,180.152863 C-37.5705863,180.152863 -44.0423425,180.24759 -44.632782,187.535675 C-44.8716419,190.484041 -38.8842012,197.684284 -39.4309082,201.767029 C-39.8311894,204.756283 -41.5651473,209.832078 -44.632782,216.994415 C-38.3406881,218.108612 -35.1946411,219.945592 -35.1946411,222.505356 C-35.1946411,225.065119 -35.1946411,242.053665 -35.1946411,273.470993 L74.088562,262.191216 L106.205902,501.740021 L113.84967,501.740021 L120.734528,495.019653 L147.453857,483.494293 L162,460.576935 L237,460.576935 L237,478.038177 L494.198456,478.038177 L494.198456,505 L516.569885,509 L656.59436,509 L656.59436,534.890259 L725,541.486145 L725,705 C725,716.045695 716.045695,725 705,725 L-155,725 C-166.045695,725 -175,716.045695 -175,705 L-175,195 C-175,183.954305 -166.045695,175 -155,175 Z" id="Path" fill="#DFF1E1" transform="translate(275.000000, 450.000000) rotate(-90.000000) translate(-275.000000, -450.000000) "></path>
        <path d="M525.330273,614.249905 C524.058069,617.968653 523.203114,620.718135 522.765408,622.498348 C522.108847,625.168669 522.113842,630.201939 519.770947,632.683605 C519.219826,633.267369 516.492276,635.123569 514.749264,638.570011 C513.981289,640.088521 511.69232,643.425164 511.264751,649.003231 C510.944599,653.179948 512.704715,659.365896 511.264751,662.874752 C509.948891,666.081197 506.038824,668.77727 499.53455,670.962971 L459.904415,693.096775 C449.42359,696.864674 441.237708,698.748623 435.346767,698.748623 C426.510357,698.748623 429.467242,698.256544 416.692806,693.096775 C403.918371,687.937007 403.918371,687.937007 393.793056,686.819248 C383.667742,685.70149 369.707853,686.700262 363.315212,688.145115 C356.922571,689.589968 354.23907,693.385622 349.974483,696.723042 C345.709897,700.060461 341.655831,699.660119 339.788021,702.501747 C337.920211,705.343375 340.146858,717.301283 338.484097,721.377911 C336.821335,725.454538 332.921711,726.450993 330.662045,730.693501 C328.402378,734.936008 326.09959,740.310001 326.09959,746.224209 C326.09959,752.138416 327.307954,755.606373 330.662045,763.309139 C334.016135,771.011905 338.400719,773.085043 339.788021,777.660084 C340.712889,780.710111 340.712889,785.12664 339.788021,790.909672 C338.762039,796.46759 338.762039,800.430084 339.788021,802.797153 C340.814003,805.164223 343.316536,808.505186 347.29562,812.820042" id="Path-16" stroke="#A7C4E2" stroke-width="4" transform="translate(425.714931, 713.534973) rotate(-90.000000) translate(-425.714931, -713.534973) "></path>
        <g id="areas" transform="translate(282.000000, 447.500000) rotate(-90.000000) translate(-282.000000, -447.500000) translate(-144.500000, 247.500000)">
            <path d="M586,322 L600,322 C601.656854,322 603,323.343146 603,325 L603,366 C603,367.656854 601.656854,369 600,369 L586,369 C584.343146,369 583,367.656854 583,366 L583,325 C583,323.343146 584.343146,322 586,322 Z" id="Rectangle" fill="#79D8FF"></path>
            <path d="M671.812815,335.5 L608,335.5 C607.309644,335.5 606.684644,335.779822 606.232233,336.232233 C605.779822,336.684644 605.5,337.309644 605.5,338 L605.5,366 C605.5,366.690356 605.779822,367.315356 606.232233,367.767767 C606.684644,368.220178 607.309644,368.5 608,368.5 L701,368.5 C701.690356,368.5 702.315356,368.220178 702.767767,367.767767 C703.220178,367.315356 703.5,366.690356 703.5,366 L703.5,361.502235 C703.5,360.74556 703.157291,360.029601 702.567933,359.555035 L673.380748,336.0528 C672.936472,335.695058 672.383219,335.5 671.812815,335.5 Z" id="Rectangle" stroke="#B3B3B3" fill="#D4D2D2"></path>
            <text id="Al" transform="translate(661.000000, 352.000000) rotate(90.000000) translate(-661.000000, -352.000000) " font-family="AvenirNext-DemiBold, Avenir Next" font-size="12" font-weight="500" fill="#FFFFFF">
                <tspan x="655.156" y="356">Al</tspan>
            </text>
            <path d="M739,248 L809,248 C810.656854,248 812,249.343146 812,251 L812,297.133545 C812,298.790399 810.656854,300.133545 809,300.133545 L788.219849,300.133545 C786.562994,300.133545 785.219849,298.790399 785.219849,297.133545 L785.219849,293 C785.219849,291.343146 783.876703,290 782.219849,290 L739,290 C737.343146,290 736,288.656854 736,287 L736,251 C736,249.343146 737.343146,248 739,248 Z" id="Rectangle" fill="#B08C2E"></path>
            <path d="M712,218 L731,218 C732.656854,218 734,219.343146 734,221 L734,287 C734,288.656854 732.656854,290 731,290 L712,290 C710.343146,290 709,288.656854 709,287 L709,221 C709,219.343146 710.343146,218 712,218 Z" id="Rectangle" fill="url(#linearGradient-1)"></path>
            <g id="Group-27" transform="translate(723.000000, 221.000000)" stroke="#FFFFFF">
                <path d="M1.4890213,0 C0.496340434,0.547286987 -1.33226763e-15,1.35206095 -1.33226763e-15,2.4143219 C-1.33226763e-15,3.47658285 0.496340434,4.28135681 1.4890213,4.8286438" id="Path-40"></path>
                <path d="M1.4890213,5 C0.496340434,5.54728699 4.53415083e-13,6.35206095 4.53415083e-13,7.4143219 C4.53415083e-13,8.47658285 0.496340434,9.28135681 1.4890213,9.8286438" id="Path-40"></path>
                <path d="M1.4890213,10 C0.496340434,10.547287 1.1235457e-13,11.352061 1.1235457e-13,12.4143219 C1.1235457e-13,13.4765828 0.496340434,14.2813568 1.4890213,14.8286438" id="Path-40"></path>
            </g>
            <path d="M705.963776,251 L705.963776,283.660384 C705.963776,285.317238 704.62063,286.660384 702.963776,286.660384 C702.601729,286.660384 702.242672,286.59485 701.90397,286.46695 L654.940194,268.73265 C653.772646,268.291764 653,267.174102 653,265.926084 L653,251 C653,249.343146 654.343146,248 656,248 L702.963776,248 C704.62063,248 705.963776,249.343146 705.963776,251 Z" id="Path-2" fill="#769972"></path>
            <rect id="Rectangle" stroke="#FFFFFF" stroke-width="2" fill-opacity="0.4" fill="#FFFFFF" x="688" y="259" width="10" height="10" rx="3"></rect>
            <path d="M586,218 L645.963776,218 C647.62063,218 648.963776,219.343146 648.963776,221 L648.963776,250 C648.963776,251.656854 647.62063,253 645.963776,253 L632.667912,253 C631.562596,253 630.488433,253.366255 629.613355,254.041505 L607.858547,270.82852 C607.312405,271.249949 606.63771,271.470286 605.948105,271.452417 L585.922292,270.933524 C584.296253,270.891391 583,269.561115 583,267.93453 L583,221 C583,219.343146 584.343146,218 586,218 Z" id="Path-3" stroke="#B6B6B6" fill="#D4D2D2"></path>
            <text id="Al" transform="translate(624.000000, 239.000000) rotate(90.000000) translate(-624.000000, -239.000000) " font-family="AvenirNext-DemiBold, Avenir Next" font-size="12" font-weight="500" fill="#FFFFFF">
                <tspan x="618.156" y="243">Al</tspan>
            </text>
            <rect id="Rectangle" fill="#B08C2E" transform="translate(798.954826, 387.046781) rotate(7.000000) translate(-798.954826, -387.046781) " x="745.954826" y="381.046781" width="106" height="12" rx="3"></rect>
            <path d="M520.531006,218 L575.531006,218 C577.18786,218 578.531006,219.343146 578.531006,221 L578.531006,268.480042 C578.531006,270.136896 577.18786,271.480042 575.531006,271.480042 L547.548405,271.480042 C545.891551,271.480042 544.548405,270.136896 544.548405,268.480042 L544.548405,264.056351 C544.548405,262.399496 543.205259,261.056351 541.548405,261.056351 L520.531006,261.056351 C518.874152,261.056351 517.531006,259.713205 517.531006,258.056351 L517.531006,221 C517.531006,219.343146 518.874152,218 520.531006,218 Z" id="Path-4" fill="#82DAFE"></path>
            <path d="M561.363635,267 C559.121212,265.87168 558,264.17699 558,261.915931 C558,258.524343 561.15504,256.248556 561.898464,254.291662 C562.39408,252.987066 562.215804,251.223179 561.363635,249 C566.413838,252.527775 569.250669,255.877196 569.874128,259.048263 C570.497587,262.21933 568.80499,264.869909 564.796336,267 C566.478336,265.440228 567.319336,263.745538 567.319336,261.915931 C567.319336,260.086325 566.478336,258.198983 564.796336,256.253906 C564.975359,257.671798 564.975359,258.744259 564.796336,259.471289 C564.617313,260.198319 564.20763,260.789628 563.567285,261.245215 C563.638323,260.846618 563.638323,260.519079 563.567285,260.262598 C563.496247,260.006117 563.293415,259.601339 562.958789,259.048263 C562.85551,260.244808 562.323792,261.441969 561.363635,262.639746 C560.403479,263.837524 560.403479,265.290942 561.363635,267 Z" id="Path-178" fill="#FFFFFF" opacity="0.702945528" transform="translate(564.000000, 258.000000) rotate(90.000000) translate(-564.000000, -258.000000) "></path>
            <path d="M590.30303,340.5 C588.434343,339.559733 587.5,338.147492 587.5,336.263276 C587.5,333.436953 590.1292,331.540463 590.74872,329.909718 C591.161733,328.822555 591.01317,327.352649 590.30303,325.5 C594.511532,328.439812 596.875558,331.230996 597.395107,333.873553 C597.914656,336.516109 596.504158,338.724924 593.163613,340.5 C594.56528,339.20019 595.266113,337.787948 595.266113,336.263276 C595.266113,334.738604 594.56528,333.165819 593.163613,331.544922 C593.312799,332.726498 593.312799,333.620216 593.163613,334.226074 C593.014428,334.831933 592.673025,335.32469 592.139404,335.704346 C592.198603,335.372181 592.198603,335.099232 592.139404,334.885498 C592.080206,334.671764 591.911179,334.334449 591.632324,333.873553 C591.546258,334.870673 591.10316,335.868307 590.30303,336.866455 C589.502899,337.864603 589.502899,339.075785 590.30303,340.5 Z" id="Path-178" fill="#FFFFFF" opacity="0.703178769" transform="translate(592.500000, 333.000000) rotate(90.000000) translate(-592.500000, -333.000000) "></path>
            <path d="M513.531006,221 L513.531006,273 C513.531006,274.656854 512.18786,276 510.531006,276 L412.406067,276 C410.749213,276 409.406067,274.656854 409.406067,273 L409.406067,264.338102 C409.406067,262.681248 410.749213,261.338102 412.406067,261.338102 L427,261.338102 C428.656854,261.338102 430,259.994956 430,258.338102 L430,221 C430,219.343146 431.343146,218 433,218 L510.531006,218 C512.18786,218 513.531006,219.343146 513.531006,221 Z" id="Path-5" fill="#5D99C4"></path>
            <path d="M496.442532,235.891921 C494.662638,239.292719 493.658243,241.317662 493.429348,241.966751 C493.086006,242.940384 491.810452,246.992386 496.442532,246.992386 C501.074612,246.992386 499.840684,242.941116 499.43948,241.966751 C499.172011,241.317174 498.173028,239.292231 496.442532,235.891921 Z" id="Path-181" stroke="#FFFFFF" stroke-width="1.5" opacity="0.557101295" transform="translate(496.449768, 241.442153) rotate(90.000000) translate(-496.449768, -241.442153) "></path>
            <path d="M490.136317,242.585706 C488.356423,245.986504 487.352028,248.011447 487.123133,248.660536 C486.779791,249.634168 485.504237,253.686171 490.136317,253.686171 C494.768397,253.686171 493.534469,249.634901 493.133265,248.660536 C492.865796,248.010959 491.866813,245.986016 490.136317,242.585706 Z" id="Path-181" stroke="#FFFFFF" stroke-width="1.5" opacity="0.557101295" transform="translate(490.143553, 248.135938) rotate(90.000000) translate(-490.143553, -248.135938) "></path>
            <path d="M396,218 L424,218 C425.656854,218 427,219.343146 427,221 L427,250 C427,251.656854 425.656854,253 424,253 L396,253 C394.343146,253 393,251.656854 393,250 L393,221 C393,219.343146 394.343146,218 396,218 Z" id="Rectangle" fill="#C9D100"></path>
            <path d="M373,200.494293 L387,200.494293 C388.656854,200.494293 390,201.837439 390,203.494293 L390,248.198096 C390,249.85495 388.656854,251.198096 387,251.198096 C386.647452,251.198096 386.297664,251.135954 385.966689,251.014524 L371.966689,245.878106 C370.785322,245.444678 370,244.320045 370,243.061678 L370,203.494293 C370,201.837439 371.343146,200.494293 373,200.494293 Z" id="Path-6" fill="#8F8F8F"></path>
            <path d="M363.453857,200.494293 L330.114501,200.494293 C329.141559,200.494293 328.229036,200.966125 327.666586,201.760018 L302.80795,236.847787 C301.850136,238.199733 302.169644,240.072164 303.52159,241.029977 C304.028565,241.389154 304.634552,241.582062 305.255865,241.582062 L363.453857,241.582062 C365.110712,241.582062 366.453857,240.238916 366.453857,238.582062 L366.453857,203.494293 C366.453857,201.837439 365.110712,200.494293 363.453857,200.494293 Z" id="Path-7" fill="#8F8F8F"></path>
            <path d="M317.352782,200.494293 L312.270283,200.494293 C311.356928,200.494293 310.49332,200.910378 309.924112,201.624673 L295.354636,219.907797 C294.785427,220.622093 293.921819,221.038177 293.008464,221.038177 L283.729943,221.038177 C282.802185,221.038177 281.926625,221.467423 281.358418,222.200824 L270.090452,236.744708 C269.07571,238.054465 269.314866,239.938844 270.624623,240.953587 C271.150462,241.360983 271.796787,241.582062 272.461977,241.582062 L292.678455,241.582062 C293.655111,241.582062 294.570636,241.106642 295.132435,240.307744 L319.806762,205.219975 C320.75983,203.864679 320.43376,201.99338 319.078463,201.040312 C318.57317,200.684981 317.970505,200.494293 317.352782,200.494293 Z" id="Path-8" stroke="#007FD1" stroke-width="2" fill="#007FD1"></path>
            <path d="M284.420013,297.340928 L284.420013,292.747803 C284.420013,291.090948 285.763159,289.747803 287.420013,289.747803 L373.855225,289.747803 C375.512079,289.747803 376.855225,291.090948 376.855225,292.747803 L376.855225,307.163049 C376.855218,307.825439 376.635994,308.469206 376.23174,308.993934 C370.823374,316.014071 361.982761,319.524139 349.7099,319.524139 C337.204154,319.524139 316.042392,313.046916 286.224612,300.092469 C285.128862,299.616434 284.420013,298.535616 284.420013,297.340928 Z" id="Path-9" fill="#95CD33"></path>
            <path d="M170.061508,319.524139 L177.088379,319.524139 C178.745233,319.524139 180.088379,318.180994 180.088379,316.524139 L180.088379,307.635971 C180.088379,305.979117 181.431525,304.635971 183.088379,304.635971 L202.552612,304.635971 C204.209467,304.635971 205.552612,303.292825 205.552612,301.635971 L205.552612,288.219208 C205.552612,286.562354 204.209467,285.219208 202.552612,285.219208 L177.061508,285.219208 C171.538661,285.219208 167.061508,289.69636 167.061508,295.219208 L167.061508,316.524139 C167.061508,318.180994 168.404654,319.524139 170.061508,319.524139 Z" id="Path-10" fill="#484848"></path>
            <rect id="Rectangle" fill="#ACACAC" x="380" y="296" width="12" height="12" rx="3"></rect>
            <path d="M255.78374,245.445679 L184.144276,245.445679 C182.676783,245.445679 181.42468,244.384063 181.184671,242.93633 L173.400983,195.985146 C173.130004,194.350602 174.235392,192.80587 175.869937,192.534891 C175.878414,192.533485 175.886897,192.532116 175.895386,192.530784 L246.442836,181.457242 C248.079648,181.200318 249.614825,182.31894 249.871749,183.955752 C249.872355,183.959613 249.872953,183.963475 249.873544,183.967338 L258.749247,241.992062 C258.999773,243.629867 257.875161,245.16066 256.237357,245.411186 C256.087242,245.434148 255.935601,245.445679 255.78374,245.445679 Z" id="Path-11" fill="#4BD7BE"></path>
            <path d="M248.945442,174.036068 L245.773811,154.215271 C245.51202,152.57923 243.973522,151.465181 242.337481,151.726972 C242.307697,151.731738 242.277987,151.736953 242.24836,151.742615 L158.319796,167.782147 C156.702925,168.091147 155.637051,169.645307 155.931226,171.26494 L159.100525,188.71408 C159.392804,190.323274 160.920162,191.401832 162.53442,191.138955 L246.465316,177.471079 C248.097439,177.205293 249.206723,175.668918 248.945442,174.036068 Z" id="Path-12" fill="#EBA552"></path>
            <path d="M242.616387,144.402669 L225.887458,21.4001479 C225.664174,19.7584079 224.152273,18.6085226 222.510533,18.831807 C222.47438,18.836724 222.43832,18.8423 222.402371,18.8485324 L169.975005,27.9376626 C168.359159,28.2177955 167.267701,29.7435308 167.524455,31.3632559 L185.865231,147.065785 C186.113493,148.631943 185.100045,150.120829 183.55197,150.464264 L164.660514,154.65527 C163.2874,154.95989 162.310257,156.177566 162.310257,157.584064 L162.310257,158.922175 C162.310257,160.579029 163.653403,161.922175 165.310257,161.922175 C165.498051,161.922175 165.68543,161.904542 165.869927,161.869508 L240.203424,147.754294 C241.771109,147.456606 242.83143,145.983811 242.616387,144.402669 Z" id="Path-13" fill="#DF7474"></path>
            <path d="M95.8473701,16.2017768 L239.022655,0.328370332 C240.661632,0.146661992 242.140009,1.32185373 242.332683,2.95957761 L242.629759,5.48472284 C242.823347,7.13022864 241.646336,8.62110948 240.000831,8.81469839 C239.98896,8.8160949 239.977082,8.81742046 239.965195,8.81867499 L96.6076532,23.9494801 C94.9599512,24.1233883 93.4832443,22.9286424 93.309336,21.2809404 C93.30505,21.2403321 93.3015935,21.1996405 93.2989687,21.158891 L93.1841497,19.3763472 C93.0811023,17.7765542 94.2540241,16.3784262 95.8473701,16.2017768 Z" id="Path-14" fill="#ACACAC"></path>
            <path d="M108.491352,51.4309904 L155.948338,37.4873327 C157.537996,37.0202644 159.205302,37.9303034 159.67237,39.5199617 C159.708082,39.6415039 159.736058,39.765186 159.756133,39.8902651 L174.614258,132.467682 L174.614258,132.467682 C175.347941,143.112335 170.215312,149.931656 159.21637,152.925644 C148.217428,155.919632 140.092834,151.664449 134.84259,140.160095 L106.491516,55.2595394 C105.966725,53.6879923 106.815288,51.9885744 108.386836,51.4637834 C108.421472,51.4522172 108.456317,51.4412844 108.491352,51.4309904 Z" id="Path-15" fill="#8AC071"></path>
            <rect id="Rectangle" fill="#ACACAC" transform="translate(44.000000, 21.000000) rotate(-26.000000) translate(-44.000000, -21.000000) " x="29" y="6" width="30" height="30" rx="3"></rect>
            <rect id="Rectangle" fill="#C27A58" transform="translate(68.780869, 233.248965) rotate(-24.000000) translate(-68.780869, -233.248965) " x="61.2808695" y="203.748965" width="15" height="59" rx="3"></rect>
            <path d="M76.304418,167.659955 L85.304418,167.659955 C86.9612722,167.659955 88.304418,169.0031 88.304418,170.659955 L88.304418,253.659955 C88.304418,255.316809 86.9612722,256.659955 85.304418,256.659955 L76.304418,256.659955 C74.6475637,256.659955 73.304418,255.316809 73.304418,253.659955 L73.304418,170.659955 C73.304418,169.0031 74.6475637,167.659955 76.304418,167.659955 Z" id="Rectangle" fill="#C27A58" transform="translate(80.804418, 212.159955) rotate(-24.000000) translate(-80.804418, -212.159955) "></path>
            <g id="Group-20" opacity="0.762889317" transform="translate(92.000000, 236.000000) rotate(113.000000) translate(-92.000000, -236.000000) translate(84.000000, 228.000000)" fill="#FFFEFE">
                <path d="M11,0 C11.5010531,0 11.9848924,0.0737009761 12.4412684,0.210853476 L9.07692308,3.8316306 L9.70870754,6.36991883 L12.3989067,6.92307692 L15.7389343,3.40122183 C15.9082312,3.90322028 16,4.44089326 16,5 C16,7.76142375 13.7614237,10 11,10 C8.23857625,10 6,7.76142375 6,5 C6,2.23857625 8.23857625,0 11,0 Z" id="Combined-Shape"></path>
                <polygon id="Rectangle" transform="translate(5.500000, 10.625001) rotate(45.000000) translate(-5.500000, -10.625001) " points="4 5 7 5 7 16.250001 4 16.250001"></polygon>
            </g>
            <rect id="Rectangle" fill="#C27A58" transform="translate(103.059580, 212.518727) rotate(-24.000000) translate(-103.059580, -212.518727) " x="95.5595801" y="177.518727" width="15" height="70" rx="3"></rect>
            <rect id="Rectangle" fill="#82DAFE" transform="translate(30.500000, 75.000000) rotate(-24.000000) translate(-30.500000, -75.000000) " x="12" y="43" width="37" height="64" rx="3"></rect>
            <path d="M24.3636354,77 C22.1212118,75.87168 21,74.1769905 21,71.9159315 C21,68.524343 24.1550398,66.2485559 24.8984637,64.2916621 C25.3940796,62.9870662 25.2158035,61.2231789 24.3636354,59 C29.4138383,62.5277747 32.2506693,65.8771957 32.8741283,69.048263 C33.4975874,72.2193303 31.80499,74.8699093 27.7963361,77 C29.478336,75.4402275 30.3193359,73.745538 30.3193359,71.9159315 C30.3193359,70.086325 29.478336,68.1989832 27.7963361,66.2539062 C27.9753586,67.6717981 27.9753586,68.7442591 27.7963361,69.4712891 C27.6173135,70.1983191 27.2076299,70.7896277 26.5672852,71.2452148 C26.6383234,70.8466176 26.6383234,70.5190785 26.5672852,70.2625977 C26.4962469,70.0061168 26.2934149,69.6013385 25.9587891,69.048263 C25.8555096,70.2448076 25.3237917,71.4419687 24.3636354,72.6397461 C23.4034792,73.8375235 23.4034792,75.2909415 24.3636354,77 Z" id="Path-178" fill="#FFFFFF" opacity="0.697556995" transform="translate(27.000000, 68.000000) rotate(90.000000) translate(-27.000000, -68.000000) "></path>
            <g id="Group-25" transform="translate(795.538712, 254.461288)" fill="#FFFFFF">
                <path d="M1.71102799,1.73016437 L9.19400917,9.29683629 C9.57930519,9.68644151 9.57930519,10.3135585 9.19400917,10.7031637 L1.71102799,18.2698356 C1.3226814,18.6625255 0.68952621,18.6660465 0.296836294,18.2776999 C0.106889429,18.0898539 4.99610312e-14,17.8338159 4.94842262e-14,17.5666719 L4.94842262e-14,2.43332808 C4.98606801e-14,1.88104333 0.44771525,1.43332808 1,1.43332808 C1.267144,1.43332808 1.52318202,1.54021751 1.71102799,1.73016437 Z" id="Path-39" opacity="0.398914156"></path>
                <path d="M1.71102799,10.3015929 L9.19400917,17.8682649 C9.57930519,18.2578701 9.57930519,18.8849871 9.19400917,19.2745923 L1.71102799,26.8412642 C1.3226814,27.2339541 0.68952621,27.2374751 0.296836294,26.8491285 C0.106889429,26.6612825 4.99610312e-14,26.4052445 4.94842262e-14,26.1381005 L4.94842262e-14,11.0047567 C4.98606801e-14,10.4524719 0.44771525,10.0047567 1,10.0047567 C1.267144,10.0047567 1.52318202,10.1116461 1.71102799,10.3015929 Z" id="Path-39" opacity="0.602426438"></path>
                <path d="M1.71102799,17.4444501 L9.19400917,25.011122 C9.57930519,25.4007272 9.57930519,26.0278442 9.19400917,26.4174494 L1.71102799,33.9841213 C1.3226814,34.3768113 0.68952621,34.3803322 0.296836294,33.9919856 C0.106889429,33.8041397 4.99610312e-14,33.5481016 4.94842262e-14,33.2809576 L4.94842262e-14,18.1476138 C4.98606801e-14,17.595329 0.44771525,17.1476138 1,17.1476138 C1.267144,17.1476138 1.52318202,17.2545032 1.71102799,17.4444501 Z" id="Path-39" opacity="0.904126122"></path>
            </g>
            <g id="Group-27" transform="translate(726.841167, 221.330189)" stroke="#FFFFFF">
                <path d="M1.4890213,0 C0.496340434,0.547286987 -1.33226763e-15,1.35206095 -1.33226763e-15,2.4143219 C-1.33226763e-15,3.47658285 0.496340434,4.28135681 1.4890213,4.8286438" id="Path-40"></path>
                <path d="M1.4890213,5 C0.496340434,5.54728699 4.53415083e-13,6.35206095 4.53415083e-13,7.4143219 C4.53415083e-13,8.47658285 0.496340434,9.28135681 1.4890213,9.8286438" id="Path-40"></path>
                <path d="M1.4890213,10 C0.496340434,10.547287 1.1235457e-13,11.352061 1.1235457e-13,12.4143219 C1.1235457e-13,13.4765828 0.496340434,14.2813568 1.4890213,14.8286438" id="Path-40"></path>
            </g>
            <line x1="725" y1="268" x2="725" y2="285.188446" id="Path-42" stroke="#FFFFFF" stroke-width="2"></line>
        </g>
        <g id="coal" transform="translate(297.000000, 517.000000)" fill="#4C4C4C">
            <path d="M3,3.21533203 C3,3.21533203 3.62792969,2.14355469 4.88378906,0 L6.4309082,4.3125 L4.88378906,5 C3.62792969,3.81022135 3,3.21533203 3,3.21533203 Z" id="Path-180"></path>
            <path d="M0,7.20263672 C0,7.20263672 0.582356771,6.13509115 1.74707031,4 L4.296875,6 L2.1484375,8.21777344 C0.716145833,7.54101563 0,7.20263672 0,7.20263672 Z" id="Path-180"></path>
            <path d="M3.7800293,8.63671875 C3.7800293,8.63671875 4.93277995,7.45825195 7.23828125,5.10131836 L9.00146484,7.63671875 L6.74707031,8.63671875 C4.76904297,8.63671875 3.7800293,8.63671875 3.7800293,8.63671875 Z" id="Path-180"></path>
            <path d="M9.39111328,5.20263672 C9.39111328,5.20263672 10.1368001,4.80175781 11.6281738,4 L13.9404297,5.20263672 L13.2617188,7.25048828 L11.390625,8.20263672 C10.0576172,6.20263672 9.39111328,5.20263672 9.39111328,5.20263672 Z" id="Path-180"></path>
            <path d="M7,3 C7,3 7.18969727,2 7.5690918,0 L10.8850098,2.5 L8.72192383,4 C7.57397461,3.33333333 7,3 7,3 Z" id="Path-180"></path>
        </g>
        <path d="M251.705872,634 C253.035191,634 254.205998,634.874804 254.582817,636.149597 L254.582817,636.149597 L255.794909,640.250149 C255.930928,640.710306 256,641.187648 256,641.667487 L256,641.667487 L256,644.454545 C256,645.00683 255.552285,645.454545 255,645.454545 L255,645.454545 L254.538528,645.454545 C253.986244,645.454545 253.538528,645.00683 253.538528,644.454545 L253.538528,644.454545 L253.538528,643.441711 L244.626233,643.441711 L244.626233,644.454545 C244.626233,645.00683 244.178518,645.454545 243.626233,645.454545 L243.626233,645.454545 L243,645.454545 C242.447715,645.454545 242,645.00683 242,644.454545 L242,644.454545 L242,641.231744 C242,641.040884 242.02732,640.851006 242.081129,640.667889 L242.081129,640.667889 L243.407458,636.154217 C243.782733,634.877111 244.954663,634 246.285765,634 L246.285765,634 Z M251.356998,634.819861 L246.594258,634.819861 C245.733362,634.819861 244.969062,635.370764 244.696862,636.187494 L244.696862,636.187494 L244.092233,638.001661 C244.058254,638.103614 244.040931,638.210378 244.040931,638.317845 C244.040931,638.870129 244.488646,639.317845 245.040931,639.317845 L245.040931,639.317845 L252.907772,639.317845 C253.014813,639.317845 253.12116,639.300659 253.222753,639.266943 C253.746925,639.092984 254.030829,638.527036 253.85687,638.002864 L253.85687,638.002864 L253.255194,636.189899 C252.983735,635.37194 252.218826,634.819861 251.356998,634.819861 L251.356998,634.819861 Z M243.590909,642.420239 C244.11809,642.420239 244.545455,641.992874 244.545455,641.465693 C244.545455,640.938512 244.11809,640.511148 243.590909,640.511148 C243.063728,640.511148 242.636364,640.938512 242.636364,641.465693 C242.636364,641.992874 243.063728,642.420239 243.590909,642.420239 Z M254.409091,640.511148 C254.936272,640.511148 255.363636,640.938512 255.363636,641.465693 C255.363636,641.992874 254.936272,642.420239 254.409091,642.420239 C253.88191,642.420239 253.454545,641.992874 253.454545,641.465693 C253.454545,640.938512 253.88191,640.511148 254.409091,640.511148 Z M252.181818,640.82933 L252.181818,642.102057 L245.818182,642.102057 L245.818182,640.82933 L252.181818,640.82933 Z" id="Combined-Shape" fill="#FFFFFF" opacity="0.700003488"></path>
        <g id="rails" transform="translate(0.000000, 9.447388)">
            <path d="M0,799.552612 C31.6741089,806.521422 54.0074423,809.570407 67,808.699566 C79.9925577,807.828725 97.1682678,801.353492 118.52713,789.273865 C149.079914,777.045444 178.237538,766.88643 206,758.796823 C233.762462,750.707216 275.87316,740.099603 332.332092,726.973984 C360.881835,720.681906 389.6062,712.43803 418.505188,702.242355 C447.404175,692.046681 490.569113,674.119496 548,648.4608" id="Path-18" stroke="#949494" stroke-width="6"></path>
            <path d="M323.582062,759.046661 C329.779053,757.08364 333.585032,754.586467 335,751.555145 C336.414968,748.523823 337.369385,742.856312 337.863252,734.552612 L337.863252,573.03772 C339.360288,540.943546 341.488898,518.113506 344.249081,504.5476 C347.009264,490.981693 352.876219,474.514675 361.849945,455.146545 C361.849945,334.75059 361.849945,266.885946 361.849945,251.552612 C361.849945,228.552612 373.866455,195.94043 378,181.552612 C380.755697,171.960734 382.133545,142.531659 382.133545,93.2653885" id="Path-19" stroke="#949494" stroke-width="6"></path>
            <path d="M358,720.838379 C354.678757,683.252718 354.678757,656.300254 358,639.980988 C361.321243,623.661721 370.866566,603.712258 386.635971,580.132599 L433.011695,502.084076 L550,454.552612" id="Path-20" stroke="#949494" stroke-width="6"></path>
            <line x1="433.011695" y1="502.084076" x2="361.302155" y2="455.552612" id="Path-21" stroke="#949494" stroke-width="6"></line>
            <path d="M364.22464,229.552612 C384.351959,228.468201 395.318766,226.801534 397.125061,224.552612 C398.931356,222.303691 401.223002,215.307922 404,203.565308 C408.584778,188.37207 416.418111,175.294078 427.5,164.331329 C438.581889,153.368581 448.081889,143.1244 456,133.598785 C467.267429,137.739512 475.600762,139.809875 481,139.809875 C486.399238,139.809875 494.065904,137.739512 504,133.598785 L548,110.856377" id="Path-22" stroke="#949494" stroke-width="6"></path>
            <path d="M479,139.745361 C493,57.616862 499,14.8859456 497,11.5526123 C494,6.5526123 463,-3.07108307 457,1.5526123 C453,4.63507589 446,43.7621878 436,118.933948 L382.133545,115.552612" id="Path-23" stroke="#949494" stroke-width="6"></path>
            <line x1="456" y1="133.598785" x2="436" y2="118.933948" id="Path-24" stroke="#949494" stroke-width="6"></line>
            <line x1="423.80719" y1="75.6926727" x2="446" y2="62.5526123" id="Path-25" stroke="#949494" stroke-width="6"></line>
            <g id="Group-18" transform="translate(0.000000, 0.552612)" stroke="#E0E0E0" stroke-dasharray="10,15" stroke-linecap="round" stroke-width="3">
                <path d="M0,799.222785 C31.6741089,806.191595 54.0074423,809.240579 67,808.369739 C79.9925577,807.498898 97.1682678,801.023664 118.52713,788.944037 C149.079914,776.715616 178.237538,766.556602 206,758.466995 C233.762462,750.377389 275.87316,739.769776 332.332092,726.644156 C360.881835,720.352079 389.6062,712.108203 418.505188,701.912528 C447.404175,691.716853 490.569113,673.715407 548,647.908188" id="Path-18"></path>
                <path d="M323.582062,758.716834 C329.779053,756.753812 333.585032,754.25664 335,751.225318 C336.414968,748.193996 337.369385,742.526485 337.863252,734.222785 L337.863252,572.707892 C339.360288,540.613719 341.488898,517.783679 344.249081,504.217772 C347.009264,490.651866 352.876219,474.184848 361.849945,454.816718 C361.849945,334.420763 361.849945,266.556118 361.849945,251.222785 C361.849945,228.222785 373.866455,195.610602 378,181.222785 C380.755697,171.630907 382.133545,142.201832 382.133545,92.9355612" id="Path-19"></path>
                <path d="M358,720.508552 C354.678757,682.922891 354.678757,655.970427 358,639.65116 C361.321243,623.331893 370.866566,603.38243 386.635971,579.802772 L433.011695,501.754249 L548,454.593933" id="Path-20"></path>
                <line x1="433.011695" y1="501.754249" x2="361.302155" y2="455.222785" id="Path-21"></line>
                <path d="M364.22464,229.222785 C384.351959,228.138373 395.318766,226.471707 397.125061,224.222785 C398.931356,221.973863 401.223002,214.978095 404,203.23548 C408.584778,188.042243 416.418111,174.96425 427.5,164.001502 C438.581889,153.038754 448.081889,142.794573 456,133.268958 C467.267429,137.409685 475.600762,139.480048 481,139.480048 C486.399238,139.480048 494.065904,137.409685 504,133.268958 L548,110.303764" id="Path-22"></path>
                <path d="M479,139.415534 C493,57.2870347 499,14.5561183 497,11.222785 C494,6.222785 463,-3.40091037 457,1.222785 C453,4.30524858 446,43.4323605 436,118.604121 L382.133545,115.222785" id="Path-23"></path>
                <line x1="456" y1="133.268958" x2="436" y2="118.604121" id="Path-24"></line>
                <line x1="423.80719" y1="75.3628454" x2="446" y2="62.222785" id="Path-25"></line>
            </g>
        </g>
        <g id="digits" transform="translate(161.000000, 62.000000)" fill="#FFFFFF" font-family="AvenirNext-Bold, Avenir Next" font-size="16" font-weight="bold">
            <text id="7" opacity="0.702638899">
                <tspan x="211.832" y="632">7</tspan>
            </text>
            <text id="1" opacity="0.702638899">
                <tspan x="0.832" y="784">1</tspan>
            </text>
            <text id="3" opacity="0.702638899">
                <tspan x="131.832" y="735">3</tspan>
            </text>
            <text id="2" opacity="0.702638899">
                <tspan x="10.832" y="674">2</tspan>
            </text>
            <text id="4" opacity="0.702638899">
                <tspan x="4.832" y="611">4</tspan>
            </text>
            <text id="5" opacity="0.702638899">
                <tspan x="88.832" y="618">5</tspan>
            </text>
            <text id="6" opacity="0.702638899">
                <tspan x="132.832" y="606">6</tspan>
            </text>
            <text id="8" opacity="0.702638899">
                <tspan x="147.832" y="531">8</tspan>
            </text>
            <text id="9" opacity="0.702638899">
                <tspan x="138.832" y="481">9</tspan>
            </text>
            <text id="10" opacity="0.702638899">
                <tspan x="214.664" y="472">10</tspan>
            </text>
            <text id="11" opacity="0.702638899">
                <tspan x="135.664" y="438">11</tspan>
            </text>
            <text id="12" opacity="0.702638899">
                <tspan x="145.664" y="412">12</tspan>
            </text>
            <text id="13" opacity="0.702638899">
                <tspan x="157.664" y="354">13</tspan>
            </text>
            <text id="14" opacity="0.702638899">
                <tspan x="150.664" y="272">14</tspan>
            </text>
            <text id="14" opacity="0.702638899">
                <tspan x="263.664" y="225">14</tspan>
            </text>
            <text id="15" opacity="0.702638899">
                <tspan x="151.664" y="212">15</tspan>
            </text>
            <text id="16" opacity="0.702638899">
                <tspan x="171.664" y="144">16</tspan>
            </text>
            <text id="17" opacity="0.702638899">
                <tspan x="162.664" y="97">17</tspan>
            </text>
            <text id="18" opacity="0.702638899">
                <tspan x="179.664" y="48">18</tspan>
            </text>
            <text id="18" opacity="0.975650606">
                <tspan x="297.664" y="16">18</tspan>
            </text>
            <text id="15" opacity="0.702638899">
                <tspan x="261.664" y="178">15</tspan>
            </text>
        </g>
        <g id="legend" transform="translate(10.000000, 43.000000)">
            <rect id="Rectangle" fill="#FFFFFF" opacity="0.461260114" x="0" y="0" width="265" height="266" rx="10"></rect>
            <text id="1.-Комплекс-сжиженно" font-family="AvenirNext-Regular, Avenir Next" font-size="10" font-weight="normal" fill="#727273">
                <tspan x="8.16" y="17">1.  Комплекс сжиженного газа</tspan>
            </text>
            <text id="2.-Складской-логисти" font-family="AvenirNext-Regular, Avenir Next" font-size="10" font-weight="normal" fill="#727273">
                <tspan x="8.305" y="31">2.  Складской логистический центр</tspan>
            </text>
            <text id="3.-Ремонтно-строител" font-family="AvenirNext-Regular, Avenir Next" font-size="10" font-weight="normal" fill="#727273">
                <tspan x="8.53" y="45">3.  Ремонтно-строительная база</tspan>
            </text>
            <text id="4.-Комплекс-перегруз" font-family="AvenirNext-Regular, Avenir Next" font-size="10" font-weight="normal" fill="#727273">
                <tspan x="8.935" y="59">4.  Комплекс перегрузки контейнеров</tspan>
            </text>
            <text id="5.-Автомобильно-желе" font-family="AvenirNext-Regular, Avenir Next" font-size="10" font-weight="normal" fill="#727273">
                <tspan x="9.335" y="72">5.  Автомобильно-железнодор. паромный комплекс</tspan>
            </text>
            <text id="6.-Комплекс-многопро" font-family="AvenirNext-Regular, Avenir Next" font-size="10" font-weight="normal" fill="#727273">
                <tspan x="8.92" y="86">6.  Комплекс многопрофильный «ЮГ-2»</tspan>
            </text>
            <text id="7.-Административно-д" font-family="AvenirNext-Regular, Avenir Next" font-size="10" font-weight="normal" fill="#727273">
                <tspan x="8.96" y="100">7.  Административно-деловой центр</tspan>
            </text>
            <text id="8.-База-портфлота" font-family="AvenirNext-Regular, Avenir Next" font-size="10" font-weight="normal" fill="#727273">
                <tspan x="8.58" y="114">8.  База портфлота</tspan>
            </text>
            <text id="11.-Комплекс-универс" font-family="AvenirNext-Regular, Avenir Next" font-size="10" font-weight="normal" fill="#727273">
                <tspan x="8.75" y="156">11.  Комплекс универсальный погрузочный</tspan>
            </text>
            <text id="9.-Комплекс-перегруз" font-family="AvenirNext-Regular, Avenir Next" font-size="10" font-weight="normal" fill="#727273">
                <tspan x="8.7" y="128">9.  Комплекс перегрузки угля</tspan>
            </text>
            <text id="10.-Комплекс-бункеро" font-family="AvenirNext-Regular, Avenir Next" font-size="10" font-weight="normal" fill="#727273">
                <tspan x="8.83" y="142">10.  Комплекс бункеровочный</tspan>
            </text>
            <text id="12.-Комплекс-перегру" font-family="AvenirNext-Regular, Avenir Next" font-size="10" font-weight="normal" fill="#727273">
                <tspan x="8.8" y="170">12.  Комплекс перегрузки технической серы</tspan>
            </text>
            <text id="13.-Комплекс-наливны" font-family="AvenirNext-Regular, Avenir Next" font-size="10" font-weight="normal" fill="#727273">
                <tspan x="8.75" y="184">13.  Комплекс наливных грузов</tspan>
            </text>
            <text id="14.-Компл.-перевалки" font-family="AvenirNext-Regular, Avenir Next" font-size="10" font-weight="normal" fill="#727273">
                <tspan x="9.385" y="198">14.  Компл. перевалки стабильного газ. концентрата</tspan>
            </text>
            <text id="15.-Комплекс-перевал" font-family="AvenirNext-Regular, Avenir Next" font-size="10" font-weight="normal" fill="#727273">
                <tspan x="8.98" y="212">15.  Комплекс перевалки алюминия и глинозема</tspan>
            </text>
            <text id="16.-Комплексы-генера" font-family="AvenirNext-Regular, Avenir Next" font-size="10" font-weight="normal" fill="#727273">
                <tspan x="9.3" y="226">16.  Комплексы генеральных грузов</tspan>
            </text>
            <text id="17.-Комплекс-интермо" font-family="AvenirNext-Regular, Avenir Next" font-size="10" font-weight="normal" fill="#727273">
                <tspan x="9.15" y="240">17.  Комплекс интермодальный перегрузочный</tspan>
            </text>
            <text id="18.-Комплексы-перегр" font-family="AvenirNext-Regular, Avenir Next" font-size="10" font-weight="normal" fill="#727273">
                <tspan x="9.115" y="254">18.  Комплексы перегрузки навалочных грузов</tspan>
            </text>
        </g>
        <text id="Морской-торговый-пор" font-family="AvenirNext-DemiBold, Avenir Next" font-size="24" font-weight="500" fill="#7D7D7D">
            <tspan x="12.432" y="29">Морской торговый порт Усть-Луга</tspan>
        </text>
        <text id="Лужская-губа" opacity="0.965244112" font-family="AvenirNext-MediumItalic, Avenir Next" font-size="21" font-style="italic" font-weight="400" fill="#FFFFFF">
            <tspan x="23.46" y="457">Лужская губа</tspan>
        </text>
        <g id="Group-16" transform="translate(112.000000, 373.000000)">
            <g id="Group-19" opacity="0.649144491" transform="translate(159.000000, 254.000000)" stroke="#FFFFFF" stroke-width="1.5">
                <rect id="Rectangle" x="0.75" y="4.75" width="6.5" height="6.5" rx="2"></rect>
                <circle id="Oval" cx="12" cy="14" r="3.25"></circle>
                <path d="M10.8382719,6.50973876 L13.6284245,1.54946762 C13.8991883,1.06810974 14.5089034,0.897389518 14.9902612,1.16815332 C15.1498857,1.2579421 15.2817868,1.38984313 15.3715755,1.54946762 L18.1617281,6.50973876 C18.4324919,6.99109664 18.2617716,7.60081173 17.7804138,7.87157554 C17.6307321,7.95577146 17.4618894,8 17.2901525,8 L11.7098475,8 C11.1575627,8 10.7098475,7.55228475 10.7098475,7 C10.7098475,6.82826314 10.754076,6.6594204 10.8382719,6.50973876 Z" id="Path-31"></path>
            </g>
            <g id="Group-21" opacity="0.698933919" transform="translate(18.000000, 344.000000)" stroke-width="1.5">
                <rect id="Rectangle" stroke="#FFFDFD" x="0.75" y="0.75" width="19.5" height="12.5" rx="2"></rect>
                <line x1="7.2366333" y1="0.600006104" x2="7.2366333" y2="13" id="Path-33" stroke="#FFFFFF"></line>
                <line x1="14" y1="1" x2="14" y2="12.6857605" id="Path-33" stroke="#FFFFFF"></line>
                <line x1="-1.42039158e-14" y1="7" x2="21" y2="7" id="Path-32" stroke="#FFFFFF"></line>
            </g>
            <g id="Group-26" opacity="0.697108677" transform="translate(132.000000, 275.000000)" fill="#FFFFFF">
                <rect id="Rectangle" x="1" y="0" width="14" height="7"></rect>
                <circle id="Oval" cx="1" cy="9" r="1"></circle>
                <circle id="Oval" cx="4" cy="9" r="1"></circle>
                <circle id="Oval" cx="12" cy="9" r="1"></circle>
                <circle id="Oval" cx="15" cy="9" r="1"></circle>
            </g>
            <g id="Group-22" opacity="0.599429176" transform="translate(0.000000, 281.000000)" stroke="#FFFFFF">
                <rect id="Rectangle" stroke-width="1.5" x="0.75" y="0.75" width="30.5" height="12.5" rx="2"></rect>
                <line x1="7" y1="3" x2="7" y2="11" id="Path-34" stroke-width="2"></line>
                <line x1="13" y1="3" x2="13" y2="11" id="Path-34" stroke-width="2"></line>
                <line x1="19" y1="3" x2="19" y2="11" id="Path-34" stroke-width="2"></line>
                <line x1="25" y1="3" x2="25" y2="11" id="Path-34" stroke-width="2"></line>
            </g>
            <g id="bunker" opacity="0.696720668" transform="translate(264.000000, 172.000000)" fill="#FFFFFF">
                <path d="M12.5,4.94209606 C11.0587688,5.7644025 9.06382115,6.19230769 6.5,6.19230769 C3.94406582,6.19230769 1.9535105,5.76703114 0.513316505,4.94967374 L0.627821101,13.1456623 C1.31077298,13.9863117 3.74330632,14.5 6.5,14.5 C9.27877977,14.5 11.6919434,13.9627435 12.5,13.1237665 L12.5,4.94209606 Z" id="Combined-Shape" stroke="#FFFFFF"></path>
                <ellipse id="Oval" cx="6.5" cy="2.5" rx="6.5" ry="2"></ellipse>
            </g>
            <g id="Group-24" opacity="0.753726051" transform="translate(204.000000, 78.000000)" fill="#FFFFFF">
                <circle id="Oval" cx="6" cy="1" r="1"></circle>
                <circle id="Oval" cx="9" cy="1" r="1"></circle>
                <circle id="Oval" cx="10.5" cy="3" r="1"></circle>
                <circle id="Oval" cx="7.5" cy="3" r="1"></circle>
                <circle id="Oval" cx="4.5" cy="3" r="1"></circle>
                <circle id="Oval" cx="9" cy="5" r="1"></circle>
                <circle id="Oval" cx="7.5" cy="7" r="1"></circle>
                <circle id="Oval" cx="10.5" cy="7" r="1"></circle>
                <circle id="Oval" cx="4.5" cy="7" r="1"></circle>
                <circle id="Oval" cx="1.5" cy="7" r="1"></circle>
                <circle id="Oval" cx="13.5" cy="7" r="1"></circle>
                <circle id="Oval" cx="6" cy="5" r="1"></circle>
                <circle id="Oval" cx="3" cy="5" r="1"></circle>
                <circle id="Oval" cx="12" cy="5" r="1"></circle>
            </g>
            <text id="S" opacity="0.701208205" font-family="AvenirNext-DemiBold, Avenir Next" font-size="12" font-weight="500" fill="#FFFFFF">
                <tspan x="196.556" y="86">S</tspan>
            </text>
            <g id="Group-23" transform="translate(189.000000, 196.000000)" opacity="0.695257278" stroke="#FFFFFF">
                <circle id="Oval" cx="3.48321025" cy="1.33333333" r="1"></circle>
                <line x1="3.46442668" y1="2.50625038" x2="3.5" y2="8.16133881" id="Path-35"></line>
                <path d="M1.40138245,6.2667834 L-3.43428989e-14,5.63594309 C0.363342285,7.60830265 1.52441237,8.59448242 3.48321025,8.59448242 C5.44200812,8.59448242 6.59055583,7.60830265 6.92885335,5.63594309 L5.50368754,6.2667834" id="Path-36"></path>
            </g>
        </g>
        <g id="close_button" opacity="0.750255766" transform="translate(509.000000, 11.000000)" stroke="#B6B6B6" stroke-width="3">
            <line x1="24" y1="8" x2="8" y2="24" id="Path-14"></line>
            <line x1="8.05599869" y1="8.12187357" x2="23.7483064" y2="23.8141813" id="Path-14"></line>
            <rect id="Rectangle" fill-opacity="0.35" fill="#D8D8D8" x="1.5" y="1.5" width="29" height="29" rx="5"></rect>
        </g>
        <g id="info_button" transform="translate(235.000000, 441.000000)">
            <circle id="Oval" stroke="#56A7E8" stroke-width="3" fill="#FFFFFF" cx="16" cy="16" r="14.5"></circle>
            <rect id="Rectangle" fill="#56A7E8" x="13" y="14" width="6" height="12" rx="3"></rect>
            <circle id="Oval" fill="#56A7E8" cx="16" cy="9" r="3"></circle>
        </g>
    </g>
</svg>