<?xml version="1.0" encoding="UTF-8"?>
<svg width="320px" height="395px" viewBox="0 0 320 395" version="1.1" xmlns="http://www.w3.org/2000/svg" xmlns:xlink="http://www.w3.org/1999/xlink">
    <title>vit_legend</title>
    <g id="vit_legend" stroke="none" stroke-width="1" fill="none" fill-rule="evenodd">
        <rect id="Rectangle" stroke="#B3BDC7" stroke-width="3" fill="#FFFFFF" x="1.5" y="1.5" width="317" height="392" rx="8"></rect>
        <g id="Group-6" transform="translate(24.000000, 360.000000)">
            <text id="Электрификация-посто" font-family="AvenirNext-Regular, Avenir Next" font-size="12" font-weight="normal" fill="#6D7C8A">
                <tspan x="42.228" y="12">Электрификация постоянным током</tspan>
            </text>
            <line x1="6.39488462e-13" y1="8" x2="35" y2="8" id="Path-7" stroke="#FF8787" stroke-width="4"></line>
        </g>
        <g id="Group-5" transform="translate(23.000000, 333.000000)">
            <text id="Двухпутный-участок-п" font-family="AvenirNext-Regular, Avenir Next" font-size="16" font-weight="normal" fill="#6D7C8A">
                <tspan x="43.92" y="16">Двухпутный участок пути</tspan>
            </text>
            <g id="Group" transform="translate(0.000000, 4.000000)">
                <line x1="36" y1="6" x2="0" y2="5.75" id="Path-5" stroke="#B3E1F0" stroke-width="12"></line>
                <line x1="36" y1="1" x2="1.13686838e-13" y2="1" id="Path-13" stroke="#84B1BF" stroke-width="3"></line>
            </g>
        </g>
        <g id="Group-3" transform="translate(23.000000, 311.000000)">
            <text id="Однопутный-участок-п" font-family="AvenirNext-Regular, Avenir Next" font-size="16" font-weight="normal" fill="#6D7C8A">
                <tspan x="42.692" y="16">Однопутный участок пути</tspan>
            </text>
            <line x1="36" y1="11" x2="0" y2="11" id="Path-5" stroke="#B3E1F0" stroke-width="12"></line>
        </g>
        <g id="Group-4" transform="translate(23.000000, 45.000000)">
            <g id="st_" transform="translate(1.000000, 33.000000)">
                <text id="Станция-1-класса" font-family="AvenirNext-Regular, Avenir Next" font-size="24" font-weight="normal" fill="#6D7C8A">
                    <tspan x="33.116" y="24">Станция 1 класса</tspan>
                </text>
                <g id="st" transform="translate(0.000000, 5.000000)" fill="#FFFDFD" stroke="#6EA8F0" stroke-width="4">
                    <circle id="Oval" cx="12" cy="12" r="10"></circle>
                </g>
            </g>
            <g id="st_" transform="translate(3.000000, 66.000000)">
                <g id="st" transform="translate(0.000000, 4.000000)" fill="#FFFDFD" stroke="#6EA8F0" stroke-width="2">
                    <circle id="Oval" cx="9" cy="9" r="8"></circle>
                </g>
                <text id="Станция-2-класса" font-family="AvenirNext-Regular, Avenir Next" font-size="18" font-weight="normal" fill="#6D7C8A">
                    <tspan x="32.087" y="18">Станция 2 класса</tspan>
                </text>
            </g>
            <g id="st_" transform="translate(6.000000, 91.000000)">
                <g id="st" transform="translate(0.000000, 4.000000)" fill="#FFFDFD" stroke="#A3A3A3" stroke-width="2">
                    <circle id="Oval" cx="6.5" cy="6.5" r="5.5"></circle>
                </g>
                <text id="Станция-3-класса" font-family="AvenirNext-Regular, Avenir Next" font-size="16" font-weight="normal" fill="#6D7C8A">
                    <tspan x="30.244" y="16">Станция 3 класса</tspan>
                </text>
            </g>
            <g id="st_" transform="translate(8.000000, 113.000000)">
                <g id="st" transform="translate(0.000000, 3.000000)" fill="#FFFFFF" stroke="#A3A3A3">
                    <circle id="Oval" transform="translate(5.000000, 5.000000) scale(-1, 1) translate(-5.000000, -5.000000) " cx="5" cy="5" r="4.5"></circle>
                </g>
                <text id="Станция-4-класса" font-family="AvenirNext-Regular, Avenir Next" font-size="12" font-weight="normal" fill="#6D7C8A">
                    <tspan x="29.058" y="12">Станция 4 класса</tspan>
                </text>
            </g>
            <g id="st_" opacity="0.5023484" transform="translate(8.000000, 129.000000)">
                <g id="st" transform="translate(0.000000, 3.000000)" fill="#FFFFFF" stroke="#A3A3A3">
                    <circle id="Oval" transform="translate(5.000000, 5.000000) scale(-1, 1) translate(-5.000000, -5.000000) " cx="5" cy="5" r="4.5"></circle>
                </g>
                <text id="Станция-5-класса" font-family="AvenirNext-Regular, Avenir Next" font-size="12" font-weight="normal" fill="#6D7C8A">
                    <tspan x="29.058" y="12">Станция 5 класса</tspan>
                </text>
            </g>
            <g id="st_">
                <text id="Внеклассная-станция" font-family="AvenirNext-Regular, Avenir Next" font-size="24" font-weight="normal" fill="#6D7C8A">
                    <tspan x="34.452" y="24">Внеклассная станция</tspan>
                </text>
                <g id="st" transform="translate(0.000000, 4.000000)">
                    <circle id="Oval" stroke="#6EA8F0" stroke-width="2" fill="#FFFDFD" cx="13" cy="13" r="12"></circle>
                    <circle id="Oval" fill="#6EA8F0" cx="13" cy="13" r="8"></circle>
                </g>
            </g>
            <g id="Group-2" transform="translate(5.000000, 145.000000)">
                <rect id="Rectangle" stroke="#5AC237" fill="#93FA6F" transform="translate(9.000000, 11.000000) rotate(-45.000000) translate(-9.000000, -11.000000) " x="3.5" y="5.5" width="11" height="11" rx="2"></rect>
                <text id="Пассажирская-станция" font-family="AvenirNext-Regular, Avenir Next" font-size="16" font-weight="normal" fill="#6D7C8A">
                    <tspan x="31.052" y="16">Пассажирская станция</tspan>
                </text>
            </g>
            <g id="port" transform="translate(2.000000, 196.000000)">
                <circle id="Oval" stroke="#87B6E0" stroke-width="2" fill="#FFFFFF" cx="12" cy="12" r="11"></circle>
                <path d="M11.9991786,2.82352941 C13.0090301,2.82352941 13.8276766,3.61049819 13.8276766,4.58127338 C13.8276766,5.27172782 13.4135538,5.86920144 12.8110554,6.15668246 L12.8495016,7.32132844 L15.7788839,7.32132844 L15.7788839,8.63579134 L12.9559259,8.63579134 L13.0665643,14.3222991 C13.1265381,14.9274161 13.2042969,15.3680766 13.2998406,15.6442804 C13.3953844,15.9204843 13.5248197,16.1644513 13.6881465,16.3761817 C13.935827,16.6499595 14.1970427,16.8179751 14.4717935,16.8802285 C14.7465444,16.9424819 15.0989469,16.8896466 15.5290011,16.7217226 C15.9392031,16.4615294 16.2346793,16.2378176 16.4154297,16.0505871 C16.5961801,15.8633566 16.8042194,15.5655014 17.0395475,15.1570215 L17.0395475,15.1570215 L16.1646541,15.1570215 C16.5755433,14.6006355 16.8671744,14.151152 17.0395475,13.8085709 C17.2119206,13.4659898 17.4050081,12.9521244 17.61881,12.2669745 C18.1947091,13.1273796 18.5648133,13.7734421 18.7291225,14.2051619 C18.8934317,14.6368817 19.003332,15.2520234 19.0588235,16.0505871 L19.0588235,16.0505871 L18.1999295,15.5383695 C17.9252738,16.3095568 17.5384799,16.9750963 17.0395475,17.5349881 C16.5406152,18.0948799 15.7221005,18.6214249 14.5840033,19.1146232 C13.8617096,19.3637768 13.3558966,19.6037501 13.0665643,19.8345429 C12.777232,20.0653358 12.4214367,20.512645 11.9991786,21.1764706 L11.9991786,21.1764706 L11.9991765,21.1715294 L11.8625303,20.9611203 C11.5003182,20.4138218 11.19062,20.037598 10.9334357,19.8324487 C10.6441034,19.6016559 10.1382904,19.3616826 9.41599668,19.112529 C8.27789955,18.6193308 7.45938482,18.0927857 6.96045248,17.5328939 C6.46152015,16.9730021 6.07472616,16.3074626 5.80007053,15.5362753 L4.94117647,16.0484929 C4.99666796,15.2499292 5.1065683,14.6347875 5.27087751,14.2030677 C5.43518672,13.7713479 5.80529089,13.1252855 6.38119004,12.2648803 C6.59499192,12.9500302 6.7880794,13.4638956 6.96045248,13.8064767 C7.13282556,14.1490578 7.4244567,14.5985413 7.8353459,15.1549273 L6.96045248,15.1549273 C7.1957806,15.5634072 7.40381986,15.8612624 7.58457026,16.0484929 C7.76532067,16.2357234 8.06079689,16.4594352 8.47099893,16.7196284 C8.90105308,16.8875524 9.25345559,16.9403877 9.52820646,16.8781343 C9.80295732,16.8158809 10.064173,16.6478653 10.3118535,16.3740875 C10.4751803,16.1623572 10.6046156,15.9183901 10.7001594,15.6421863 C10.7957031,15.3659824 10.8734619,14.925322 10.9334357,14.3202049 L11.0440741,8.63369716 L8.22111612,8.63369716 L8.22111612,7.31923425 L11.1504984,7.31923425 L11.1892725,6.15762135 C10.5857066,5.87050373 10.1706806,5.27248036 10.1706806,4.58127338 C10.1706806,3.61049819 10.9893271,2.82352941 11.9991786,2.82352941 Z" id="Combined-Shape" fill="#87B6E0" transform="translate(12.000000, 12.000000) scale(-1, 1) translate(-12.000000, -12.000000) "></path>
            </g>
            <text id="Порт" font-family="AvenirNext-Regular, Avenir Next" font-size="16" font-weight="normal" fill="#6D7C8A">
                <tspan x="36" y="212">Порт</tspan>
            </text>
            <g id="zd_vkz" transform="translate(6.000000, 221.000000)" fill="#404040">
                <path d="M13.4652286,6.08273619 L18.8845834,8.75528902 C19.5675552,9.09209631 20,9.78752667 20,10.5490315 L20,20.6451613 L18.0645161,20.6451613 L18.0645161,15.5989564 C18.0645161,13.6510686 17.311828,12.6771247 15.8064516,12.6771247 C14.3010753,12.6771247 13.5483871,13.6510686 13.5483871,15.5989564 L13.5483871,15.5989564 L13.5483871,20.6451613 L11.6129032,20.6451613 L11.6129032,15.5989564 C11.6129032,13.6510686 10.8602151,12.6771247 9.35483871,12.6771247 C7.84946237,12.6771247 7.09677419,13.6510686 7.09677419,15.5989564 L7.09677419,15.5989564 L7.09677419,20.6451613 L5.16129032,20.6451613 L5.16129032,9.30535628 L11.6960617,6.08273619 C12.2537221,5.80772618 12.9075682,5.80772618 13.4652286,6.08273619 Z M12.5806452,7.74193548 C11.6898633,7.74193548 10.9677419,8.46405686 10.9677419,9.35483871 C10.9677419,10.2456206 11.6898633,10.9677419 12.5806452,10.9677419 C13.471427,10.9677419 14.1935484,10.2456206 14.1935484,9.35483871 C14.1935484,8.46405686 13.471427,7.74193548 12.5806452,7.74193548 Z" id="Combined-Shape"></path>
                <path d="M3.87455325,0.553048637 L5.7491065,2.15108214 C6.19484895,2.53107208 6.4516129,3.08736162 6.4516129,3.6730908 L6.4516129,20.6451613 L5.161,20.645053 L5.16129032,18.0028053 C5.16129032,16.8168904 4.67607527,16.1942851 3.70564516,16.1349894 L3.5483871,16.1303082 C2.47311828,16.1303082 1.93548387,16.7544739 1.93548387,18.0028053 L1.93548387,18.0028053 L1.935,20.645053 L0,20.6451613 L0,3.6730908 C8.16447282e-16,3.08736162 0.256763955,2.53107208 0.702506404,2.15108214 L2.57705965,0.553048637 C2.95086083,0.234387745 3.50075207,0.234387745 3.87455325,0.553048637 Z M3.25787232,4.46631123 C2.18893409,4.46631123 1.32238845,5.33285688 1.32238845,6.40179511 C1.32238845,7.47073333 2.18893409,8.33727898 3.25787232,8.33727898 C4.32681054,8.33727898 5.19335619,7.47073333 5.19335619,6.40179511 C5.19335619,5.33285688 4.32681054,4.46631123 3.25787232,4.46631123 Z" id="Combined-Shape"></path>
            </g>
            <text id="Вокзал" font-family="AvenirNext-Regular, Avenir Next" font-size="16" font-weight="normal" fill="#6D7C8A">
                <tspan x="36.228" y="239">Вокзал</tspan>
            </text>
            <g id="st_" transform="translate(7.000000, 171.000000)">
                <text id="Иностранная-станция" font-family="AvenirNext-Italic, Avenir Next" font-size="14" font-style="italic" font-weight="normal" fill="#A0A0A0">
                    <tspan x="30.633" y="14">Иностранная станция</tspan>
                </text>
                <g id="st" transform="translate(0.000000, 2.000000)" fill="#C5C5C5">
                    <circle id="Oval" cx="7" cy="7" r="7"></circle>
                </g>
            </g>
        </g>
        <text id="Обозначения" font-family="AvenirNext-DemiBold, Avenir Next" font-size="22" font-weight="500" fill="#6D7C8A">
            <tspan x="86.894" y="36">Обозначения</tspan>
        </text>
        <line x1="233.445312" y1="301" x2="71" y2="301" id="Path-140" stroke="#D9D7D7"></line>
    </g>
</svg>