<?xml version="1.0" encoding="UTF-8"?>
<svg width="30px" height="20px" viewBox="0 0 30 20" version="1.1" xmlns="http://www.w3.org/2000/svg" xmlns:xlink="http://www.w3.org/1999/xlink">
    <title>Group 42</title>
    <g id="Page-1" stroke="none" stroke-width="1" fill="none" fill-rule="evenodd">
        <g id="Group-42">
            <path d="M5,20 L4.78311038,19.9953805 C2.12230671,19.8818181 -5.32907052e-15,17.6887547 -5.32907052e-15,15 C-5.32907052e-15,12.2385763 2.23857625,10 5,10 C5.01850369,10 5.03698391,10.0001005 5.05544013,10.000301 C5.01869746,9.67281389 5,9.33859046 5,9 C5,4.02943725 9.02943725,0 14,0 C17.9254967,0 21.2640103,2.51317376 22.4943337,6.01831428 C22.6608253,6.00608127 22.8297025,6 23,6 C26.8659932,6 30,9.13400675 30,13 C30,16.8659932 26.8659932,20 23,20 L23,20 L5,20 Z" id="Combined-Shape" fill="#BC00FF"></path>
            <path d="M13.7545411,2 L17.320326,8 L10,8 L13.7545411,2 Z M13.7317937,4.56762263 L12.4366087,6.70730815 L15.0042313,6.70730815 L13.7317937,4.56762263 Z" id="Combined-Shape" fill="#FFFFFF"></path>
            <circle id="Oval" stroke="#FFFFFF" cx="21" cy="10" r="1.5"></circle>
            <path d="M13.1421736,14.520223 L13.5444841,10 L18.4509779,10 L18.4509779,11.3807703 L14.8127505,11.3807703 L14.5994902,13.4034302 C15.4064958,12.5313119 16.3674475,12.337141 17.4823452,12.8209177 C19.1546918,13.5465827 19.0020887,15.5268465 18.7541886,16.1792032 C18.5062885,16.83156 17.7116076,18.2686952 15.4507996,17.9561092 C13.9435942,17.7477185 13.126661,16.956878 13,15.5835879 L14.534616,15.5835879 C14.6961677,16.2608702 15.1301686,16.6195547 15.8366185,16.6596414 C16.8962935,16.7197715 17.3451794,15.9884964 17.3451794,15.3140756 C17.3451794,14.6396549 17.0909538,14.0106125 16.1836937,13.8343185 C15.5788536,13.7167891 15.0507858,13.945424 14.5994902,14.520223 L13.1421736,14.520223 Z" id="Path-44" fill="#FFFFFF"></path>
            <polygon id="Path-37" fill="#FFFFFF" points="9 11.0463701 10.4438561 10 12.1268372 10 12.1268372 18 10.5634186 18 10.5634186 11.6521008 9 12.5579255"></polygon>
        </g>
    </g>
</svg>