<?xml version="1.0" encoding="UTF-8"?>
<svg width="30px" height="20px" viewBox="0 0 30 20" version="1.1" xmlns="http://www.w3.org/2000/svg" xmlns:xlink="http://www.w3.org/1999/xlink">
    <title>Group 43</title>
    <g id="Page-1" stroke="none" stroke-width="1" fill="none" fill-rule="evenodd">
        <g id="Group-43">
            <path d="M5,20 L4.78311038,19.9953805 C2.12230671,19.8818181 -5.32907052e-15,17.6887547 -5.32907052e-15,15 C-5.32907052e-15,12.2385763 2.23857625,10 5,10 C5.01850369,10 5.03698391,10.0001005 5.05544013,10.000301 C5.01869746,9.67281389 5,9.33859046 5,9 C5,4.02943725 9.02943725,0 14,0 C17.9254967,0 21.2640103,2.51317376 22.4943337,6.01831428 C22.6608253,6.00608127 22.8297025,6 23,6 C26.8659932,6 30,9.13400675 30,13 C30,16.8659932 26.8659932,20 23,20 L23,20 L5,20 Z" id="Combined-Shape" fill="#BC00FF"></path>
            <g id="Group-4" transform="translate(9.000000, 3.000000)" stroke="#FFFFFF">
                <polyline id="Path-12" points="2.43181818 5.09090909 2.43181818 2.68186257 2.43181818 2.58379177e-14"></polyline>
                <polyline id="Path-12" transform="translate(2.431818, 2.545455) rotate(-60.000000) translate(-2.431818, -2.545455) " points="2.43181818 5.09090909 2.43181818 2.68186257 2.43181818 -9.70435853e-14"></polyline>
                <polyline id="Path-12" transform="translate(2.431818, 2.545455) rotate(-120.000000) translate(-2.431818, -2.545455) " points="2.43181818 5.09090909 2.43181818 2.68186257 2.43181818 -1.65948063e-13"></polyline>
            </g>
            <g id="Group-22" transform="translate(8.000000, 7.500000)" stroke="#FFFFFF" stroke-linecap="round">
                <line x1="0" y1="5.5" x2="15" y2="5.5" id="Path-8"></line>
                <path d="M3,11 L14,11 C15.0100911,11.0069608 15.5151367,10.5250896 15.5151367,9.5543865 C15.5151367,8.58368338 15.0100911,8.06555454 14,8" id="Path-8" transform="translate(9.257568, 9.500037) scale(1, -1) translate(-9.257568, -9.500037) "></path>
                <path d="M9.76996262e-15,3 L9,3 C10.0100911,3.00696079 10.5151367,2.52508963 10.5151367,1.5543865 C10.5151367,0.583683376 10.0100911,0.0655545425 9,1.35447209e-14" id="Path-8"></path>
            </g>
        </g>
    </g>
</svg>