<?xml version="1.0" encoding="UTF-8"?>
<svg width="30px" height="20px" viewBox="0 0 30 20" version="1.1" xmlns="http://www.w3.org/2000/svg" xmlns:xlink="http://www.w3.org/1999/xlink">
    <title>Group 39</title>
    <g id="Page-1" stroke="none" stroke-width="1" fill="none" fill-rule="evenodd">
        <g id="Group-39">
            <path d="M5,20 L4.78311038,19.9953805 C2.12230671,19.8818181 -5.32907052e-15,17.6887547 -5.32907052e-15,15 C-5.32907052e-15,12.2385763 2.23857625,10 5,10 C5.01850369,10 5.03698391,10.0001005 5.05544013,10.000301 C5.01869746,9.67281389 5,9.33859046 5,9 C5,4.02943725 9.02943725,0 14,0 C17.9254967,0 21.2640103,2.51317376 22.4943337,6.01831428 C22.6608253,6.00608127 22.8297025,6 23,6 C26.8659932,6 30,9.13400675 30,13 C30,16.8659932 26.8659932,20 23,20 L23,20 L5,20 Z" id="Combined-Shape" fill="#BC00FF"></path>
            <path d="M18.0287461,10 C19.2543231,10 19.853253,10.5212593 20.264174,11.1203725 C20.6750951,11.7194857 21.030948,12.4077637 21.030948,14.1238943 C21.030948,15.8400249 20.4585623,16.7238277 20.0474213,17.1664991 C19.6362803,17.6091704 19.0500725,18 18.0287461,18 C17.0074196,18 16.2938073,17.5218753 15.9704746,17.1664991 C15.647142,16.8111228 15,15.8370552 15,14.0763788 C15,12.3157025 15.4566034,11.4576739 15.8483862,11.0006672 C16.240169,10.5436606 16.803169,10 18.0287461,10 Z M18.0169772,11.3154574 C17.1388205,11.3154574 16.6691963,12.1730093 16.6081047,13.8881133 C16.641039,15.7693016 17.1106631,16.7098957 18.0169772,16.7098957 C18.9232912,16.7098957 19.39291,15.7693016 19.4258335,13.8881133 C19.3647527,12.1730093 18.8951339,11.3154574 18.0169772,11.3154574 Z" id="Combined-Shape" fill="#FFFFFF"></path>
            <path d="M13.4699376,10 L13.4699376,15.2364182 L14.5241591,15.2364182 L14.5241591,16.618036 L13.4699376,16.618036 L13.4699376,18 L11.9216026,18 L11.9216026,16.618036 L8,16.618036 L8,15.1743079 C8.36664191,14.4674823 8.73462466,13.812459 9.10394824,13.2092377 C9.47327181,12.6060165 10.152947,11.5362706 11.1429739,10 L13.4699376,10 Z M11.9371013,11.1974791 C11.3524021,12.0534145 10.9221808,12.7045151 10.6464376,13.1507809 C10.3706943,13.5970468 9.96565044,14.312296 9.4313061,15.2965286 L11.9371013,15.2965286 L11.9371013,11.1974791 Z" id="Combined-Shape" fill="#FFFFFF"></path>
            <circle id="Oval" stroke="#FFFFFF" cx="23" cy="10" r="1.5"></circle>
            <rect id="Rectangle" fill="#FFFFFF" x="5" y="14" width="2" height="1.5"></rect>
        </g>
    </g>
</svg>