<?xml version="1.0" encoding="UTF-8"?>
<svg width="30px" height="20px" viewBox="0 0 30 20" version="1.1" xmlns="http://www.w3.org/2000/svg" xmlns:xlink="http://www.w3.org/1999/xlink">
    <title>Group 41</title>
    <g id="Page-1" stroke="none" stroke-width="1" fill="none" fill-rule="evenodd">
        <g id="Group-41">
            <path d="M5,20 L4.78311038,19.9953805 C2.12230671,19.8818181 -5.32907052e-15,17.6887547 -5.32907052e-15,15 C-5.32907052e-15,12.2385763 2.23857625,10 5,10 C5.01850369,10 5.03698391,10.0001005 5.05544013,10.000301 C5.01869746,9.67281389 5,9.33859046 5,9 C5,4.02943725 9.02943725,0 14,0 C17.9254967,0 21.2640103,2.51317376 22.4943337,6.01831428 C22.6608253,6.00608127 22.8297025,6 23,6 C26.8659932,6 30,9.13400675 30,13 C30,16.8659932 26.8659932,20 23,20 L23,20 L5,20 Z" id="Combined-Shape" fill="#BC00FF"></path>
            <path d="M18.0287461,10 C19.2543231,10 19.853253,10.5212593 20.264174,11.1203725 C20.6750951,11.7194857 21.030948,12.4077637 21.030948,14.1238943 C21.030948,15.8400249 20.4585623,16.7238277 20.0474213,17.1664991 C19.6362803,17.6091704 19.0500725,18 18.0287461,18 C17.0074196,18 16.2938073,17.5218753 15.9704746,17.1664991 C15.647142,16.8111228 15,15.8370552 15,14.0763788 C15,12.3157025 15.4566034,11.4576739 15.8483862,11.0006672 C16.240169,10.5436606 16.803169,10 18.0287461,10 Z M18.0169772,11.3154574 C17.1388205,11.3154574 16.6691963,12.1730093 16.6081047,13.8881133 C16.641039,15.7693016 17.1106631,16.7098957 18.0169772,16.7098957 C18.9232912,16.7098957 19.39291,15.7693016 19.4258335,13.8881133 C19.3647527,12.1730093 18.8951339,11.3154574 18.0169772,11.3154574 Z" id="Combined-Shape" fill="#FFFFFF"></path>
            <path d="M9.165178,12.3442423 L10.6085243,12.3442423 C10.7739223,11.5633186 11.2504311,11.2097708 12.0380509,11.2835987 C13.2194805,11.3943405 13.0776899,12.2277086 13.0776899,12.4401013 C13.0776899,12.6524939 12.9727032,12.9689934 12.5809095,13.1656968 C12.3197137,13.2968323 11.7853473,13.3500221 10.9778104,13.3252662 L10.9778104,14.4952954 C12.5190563,14.3941455 13.2896793,14.731833 13.2896793,15.5083578 C13.2896793,16.6731449 11.8815607,16.9011903 11.2106946,16.5489865 C10.7634505,16.314184 10.5348064,16.0136671 10.5247623,15.6474357 L9,15.6474357 C9.13841814,16.8955451 9.81857076,17.6478027 11.0404579,17.9042086 C12.8732885,18.2888175 14.7416034,17.4933897 14.8907622,15.9110754 C14.9902013,14.8561992 14.4307858,14.1626299 13.2125156,13.8303678 C13.7280889,13.6666805 14.091351,13.4258295 14.3023018,13.1078148 C14.618728,12.6307928 14.6155388,12.1586095 14.6155388,11.9553079 C14.6155388,11.7520062 14.6145661,11.1700489 13.8639166,10.6034949 C13.3634836,10.2257923 12.7761352,10.0279281 12.1018713,10.0099025 C11.267208,9.95176396 10.5656597,10.1496281 9.99722644,10.6034949 C9.4287932,11.0573617 9.15144372,11.6376109 9.165178,12.3442423 Z" id="Path-41" fill="#FFFFFF"></path>
            <circle id="Oval" stroke="#FFFFFF" cx="23" cy="10" r="1.5"></circle>
            <rect id="Rectangle" fill="#FFFFFF" x="6" y="14" width="2" height="1.5"></rect>
        </g>
    </g>
</svg>