<?xml version="1.0" encoding="UTF-8"?>
<svg width="30px" height="20px" viewBox="0 0 30 20" version="1.1" xmlns="http://www.w3.org/2000/svg" xmlns:xlink="http://www.w3.org/1999/xlink">
    <title>Group 25</title>
    <g id="Page-1" stroke="none" stroke-width="1" fill="none" fill-rule="evenodd">
        <g id="Group-25">
            <path d="M5,20 L4.78311038,19.9953805 C2.12230671,19.8818181 -5.32907052e-15,17.6887547 -5.32907052e-15,15 C-5.32907052e-15,12.2385763 2.23857625,10 5,10 C5.01850369,10 5.03698391,10.0001005 5.05544013,10.000301 C5.01869746,9.67281389 5,9.33859046 5,9 C5,4.02943725 9.02943725,0 14,0 C17.9254967,0 21.2640103,2.51317376 22.4943337,6.01831428 C22.6608253,6.00608127 22.8297025,6 23,6 C26.8659932,6 30,9.13400675 30,13 C30,16.8659932 26.8659932,20 23,20 L23,20 L5,20 Z" id="Combined-Shape" fill="#BC00FF"></path>
            <line x1="9" y1="12" x2="26" y2="12" id="Path-8" stroke="#FFFFFF" stroke-width="2" stroke-linecap="round"></line>
            <line x1="9" y1="8" x2="20" y2="8" id="Path-8" stroke="#FFFFFF" stroke-width="2" stroke-linecap="round"></line>
            <line x1="11" y1="4" x2="17" y2="4" id="Path-8" stroke="#FFFFFF" stroke-width="2" stroke-linecap="round"></line>
            <line x1="4" y1="16" x2="24" y2="16" id="Path-8" stroke="#FFFFFF" stroke-width="2" stroke-linecap="round"></line>
        </g>
    </g>
</svg>