<?xml version="1.0" encoding="UTF-8"?>
<svg width="30px" height="20px" viewBox="0 0 30 20" version="1.1" xmlns="http://www.w3.org/2000/svg" xmlns:xlink="http://www.w3.org/1999/xlink">
    <title>Group 38</title>
    <g id="Page-1" stroke="none" stroke-width="1" fill="none" fill-rule="evenodd">
        <g id="Group-38">
            <path d="M5,20 L4.78311038,19.9953805 C2.12230671,19.8818181 -5.32907052e-15,17.6887547 -5.32907052e-15,15 C-5.32907052e-15,12.2385763 2.23857625,10 5,10 C5.01850369,10 5.03698391,10.0001005 5.05544013,10.000301 C5.01869746,9.67281389 5,9.33859046 5,9 C5,4.02943725 9.02943725,0 14,0 C17.9254967,0 21.2640103,2.51317376 22.4943337,6.01831428 C22.6608253,6.00608127 22.8297025,6 23,6 C26.8659932,6 30,9.13400675 30,13 C30,16.8659932 26.8659932,20 23,20 L23,20 L5,20 Z" id="Combined-Shape" fill="#BC00FF"></path>
            <circle id="Oval" stroke="#FFFFFF" cx="23" cy="10" r="1.5"></circle>
            <rect id="Rectangle" fill="#FFFFFF" x="6" y="14" width="2" height="1.5"></rect>
            <path d="M9,18 L14.3333333,18 L14.3333333,16.6096481 L11.1077233,16.6096481 L13.584621,14 C14.0201632,13.5156748 14.2379343,12.9039275 14.2379343,12.1647582 C14.2379343,11.0560042 13.7006757,10.7186295 13.220983,10.3795965 C12.7412904,10.0405635 12.254373,10.0172461 11.7125562,10.0015197 C10.8286079,9.97586272 10.1707682,10.2770876 9.67822788,10.7535277 C9.25057335,11.167203 9.02449739,11.7598199 9,12.5313782 L10.3523387,12.5313782 C10.4236041,12.0576264 10.6076826,11.7057547 10.9045744,11.475763 C11.349912,11.1307754 12.3403872,11.1429483 12.6862088,11.8877582 C12.9167565,12.384298 12.7909774,12.8962645 12.3088714,13.4236575 C11.7743274,13.9932925 11.3062284,14.491566 10.9045744,14.918478 C10.5029204,15.34539 9.86806228,15.9816736 9,16.8273287 L9,18 Z" id="Path-38" fill="#FFFFFF"></path>
            <path d="M15.1421736,14.520223 L15.5444841,10 L20.4509779,10 L20.4509779,11.3807703 L16.8127505,11.3807703 L16.5994902,13.4034302 C17.4064958,12.5313119 18.3674475,12.337141 19.4823452,12.8209177 C21.1546918,13.5465827 21.0020887,15.5268465 20.7541886,16.1792032 C20.5062885,16.83156 19.7116076,18.2686952 17.4507996,17.9561092 C15.9435942,17.7477185 15.126661,16.956878 15,15.5835879 L16.534616,15.5835879 C16.6961677,16.2608702 17.1301686,16.6195547 17.8366185,16.6596414 C18.8962935,16.7197715 19.3451794,15.9884964 19.3451794,15.3140756 C19.3451794,14.6396549 19.0909538,14.0106125 18.1836937,13.8343185 C17.5788536,13.7167891 17.0507858,13.945424 16.5994902,14.520223 L15.1421736,14.520223 Z" id="Path-44" fill="#FFFFFF"></path>
        </g>
    </g>
</svg>