<?xml version="1.0" encoding="UTF-8"?>
<svg width="30px" height="20px" viewBox="0 0 30 20" version="1.1" xmlns="http://www.w3.org/2000/svg" xmlns:xlink="http://www.w3.org/1999/xlink">
    <title>Group 19</title>
    <g id="Page-1" stroke="none" stroke-width="1" fill="none" fill-rule="evenodd">
        <g id="Group-19">
            <path d="M5,20 L4.78311038,19.9953805 C2.12230671,19.8818181 -5.32907052e-15,17.6887547 -5.32907052e-15,15 C-5.32907052e-15,12.2385763 2.23857625,10 5,10 C5.01850369,10 5.03698391,10.0001005 5.05544013,10.000301 C5.01869746,9.67281389 5,9.33859046 5,9 C5,4.02943725 9.02943725,0 14,0 C17.9254967,0 21.2640103,2.51317376 22.4943337,6.01831428 C22.6608253,6.00608127 22.8297025,6 23,6 C26.8659932,6 30,9.13400675 30,13 C30,16.8659932 26.8659932,20 23,20 L23,20 L5,20 Z" id="Combined-Shape" fill="#BC00FF"></path>
            <g id="Group-4" transform="translate(10.000000, 2.000000)" stroke="#FFFFFF" stroke-width="2">
                <polyline id="Path-12" points="4.37727273 9.16363636 4.37727273 4.82735263 4.37727273 4.65082518e-14"></polyline>
                <polyline id="Path-12" transform="translate(4.377273, 4.581818) rotate(-60.000000) translate(-4.377273, -4.581818) " points="4.37727273 9.16363636 4.37727273 4.82735263 4.37727273 -1.59236261e-14"></polyline>
                <polyline id="Path-12" transform="translate(4.377273, 4.581818) rotate(-120.000000) translate(-4.377273, -4.581818) " points="4.37727273 9.16363636 4.37727273 4.82735263 4.37727273 -2.3081032e-13"></polyline>
            </g>
            <g id="Group-2" transform="translate(5.000000, 13.000000)" stroke="#FFFFFF" stroke-linecap="round" stroke-width="2">
                <line x1="14" y1="2.53693182" x2="15.4545455" y2="2.55351296e-14" id="Path-7"></line>
                <line x1="18" y1="4.53693182" x2="19.4545455" y2="2" id="Path-7"></line>
                <line x1="2.24265051e-14" y1="4.53693182" x2="1.45454545" y2="2" id="Path-7"></line>
                <line x1="5" y1="2.53693182" x2="6.45454545" y2="2.55351296e-14" id="Path-7"></line>
                <line x1="9" y1="4.53693182" x2="10.4545455" y2="2" id="Path-7"></line>
            </g>
        </g>
    </g>
</svg>