<?xml version="1.0" encoding="UTF-8"?>
<svg width="30px" height="20px" viewBox="0 0 30 20" version="1.1" xmlns="http://www.w3.org/2000/svg" xmlns:xlink="http://www.w3.org/1999/xlink">
    <title>Group 26</title>
    <g id="Page-1" stroke="none" stroke-width="1" fill="none" fill-rule="evenodd">
        <g id="Group-26">
            <path d="M5,20 L4.78311038,19.9953805 C2.12230671,19.8818181 -5.32907052e-15,17.6887547 -5.32907052e-15,15 C-5.32907052e-15,12.2385763 2.23857625,10 5,10 C5.01850369,10 5.03698391,10.0001005 5.05544013,10.000301 C5.01869746,9.67281389 5,9.33859046 5,9 C5,4.02943725 9.02943725,0 14,0 C17.9254967,0 21.2640103,2.51317376 22.4943337,6.01831428 C22.6608253,6.00608127 22.8297025,6 23,6 C26.8659932,6 30,9.13400675 30,13 C30,16.8659932 26.8659932,20 23,20 L23,20 L5,20 Z" id="Combined-Shape" fill="#BC00FF"></path>
            <path d="M16.0287461,8 C17.2543231,8 17.853253,8.52125935 18.264174,9.12037252 C18.6750951,9.7194857 19.030948,10.4077637 19.030948,12.1238943 C19.030948,13.8400249 18.4585623,14.7238277 18.0474213,15.1664991 C17.6362803,15.6091704 17.0500725,16 16.0287461,16 C15.0074196,16 14.2938073,15.5218753 13.9704746,15.1664991 C13.647142,14.8111228 13,13.8370552 13,12.0763788 C13,10.3157025 13.4566034,9.45767386 13.8483862,9.00066721 C14.240169,8.54366056 14.803169,8 16.0287461,8 Z M16.0169772,9.31545735 C15.1388205,9.31545735 14.6691963,10.1730093 14.6081047,11.8881133 C14.641039,13.7693016 15.1106631,14.7098957 16.0169772,14.7098957 C16.9232912,14.7098957 17.39291,13.7693016 17.4258335,11.8881133 C17.3647527,10.1730093 16.8951339,9.31545735 16.0169772,9.31545735 Z" id="Combined-Shape" fill="#FFFFFF"></path>
            <path d="M6.78905136,9.42443955 L8.27874811,6.6446916 C8.5396231,6.15790347 9.14572381,5.97476468 9.63251195,6.23563967 C9.80618466,6.32871274 9.94849081,6.47101889 10.0415639,6.6446916 L11.5312606,9.42443955 C11.7921356,9.91122768 11.6089968,10.5173284 11.1222087,10.7782034 C10.9769358,10.8560567 10.8146719,10.8967955 10.6498528,10.8967955 L7.67045924,10.8967955 C7.11817449,10.8967955 6.67045924,10.4490802 6.67045924,9.89679549 C6.67045924,9.73197633 6.71119804,9.56971245 6.78905136,9.42443955 Z" id="Path-30" fill="#FFFFFF" transform="translate(9.160156, 7.948398) scale(1, -1) rotate(180.000000) translate(-9.160156, -7.948398) "></path>
            <path d="M6.78905136,17.4244395 L8.27874811,14.6446916 C8.5396231,14.1579035 9.14572381,13.9747647 9.63251195,14.2356397 C9.80618466,14.3287127 9.94849081,14.4710189 10.0415639,14.6446916 L11.5312606,17.4244395 C11.7921356,17.9112277 11.6089968,18.5173284 11.1222087,18.7782034 C10.9769358,18.8560567 10.8146719,18.8967955 10.6498528,18.8967955 L7.67045924,18.8967955 C7.11817449,18.8967955 6.67045924,18.4490802 6.67045924,17.8967955 C6.67045924,17.7319763 6.71119804,17.5697125 6.78905136,17.4244395 Z" id="Path-30" fill="#FFFFFF" transform="translate(9.160156, 15.948398) scale(1, -1) translate(-9.160156, -15.948398) "></path>
            <circle id="Oval" stroke="#FFFFFF" cx="19" cy="6" r="1.5"></circle>
        </g>
    </g>
</svg>