<?xml version="1.0" encoding="UTF-8"?>
<svg width="30px" height="20px" viewBox="0 0 30 20" version="1.1" xmlns="http://www.w3.org/2000/svg" xmlns:xlink="http://www.w3.org/1999/xlink">
    <title>Group 35</title>
    <g id="Page-1" stroke="none" stroke-width="1" fill="none" fill-rule="evenodd">
        <g id="Group-35">
            <path d="M5,20 L4.78311038,19.9953805 C2.12230671,19.8818181 -5.32907052e-15,17.6887547 -5.32907052e-15,15 C-5.32907052e-15,12.2385763 2.23857625,10 5,10 C5.01850369,10 5.03698391,10.0001005 5.05544013,10.000301 C5.01869746,9.67281389 5,9.33859046 5,9 C5,4.02943725 9.02943725,0 14,0 C17.9254967,0 21.2640103,2.51317376 22.4943337,6.01831428 C22.6608253,6.00608127 22.8297025,6 23,6 C26.8659932,6 30,9.13400675 30,13 C30,16.8659932 26.8659932,20 23,20 L23,20 L5,20 Z" id="Combined-Shape" fill="#BC00FF"></path>
            <g id="Group-2" transform="translate(7.000000, 8.000000)" stroke="#FFFFFF" stroke-linecap="round" stroke-width="2">
                <line x1="2.18181818" y1="7.875" x2="6.36363636" y2="0" id="Path-6"></line>
                <line x1="10" y1="7.93181818" x2="14.1818182" y2="0.0568181818" id="Path-6"></line>
                <line x1="14" y1="7.53693182" x2="15.4545455" y2="5" id="Path-7"></line>
                <line x1="0.727272727" y1="2.59375" x2="2.18181818" y2="0.0568181818" id="Path-7"></line>
                <line x1="6" y1="7.86647727" x2="7.45454545" y2="5.32954545" id="Path-7"></line>
                <line x1="8.72727273" y1="2.59375" x2="10.1818182" y2="0.0568181818" id="Path-7"></line>
            </g>
        </g>
    </g>
</svg>