<?xml version="1.0" encoding="UTF-8"?>
<svg width="64px" height="64px" viewBox="0 0 64 64" version="1.1" xmlns="http://www.w3.org/2000/svg" xmlns:xlink="http://www.w3.org/1999/xlink">
    <title>day</title>
    <g id="day" stroke="none" stroke-width="1" fill="none" fill-rule="evenodd">
        <g id="Group-10" fill="#FFD33A" stroke="#D7A602">
            <circle id="Oval" cx="32" cy="30.8965517" r="17.1551724"></circle>
            <path d="M31.7982743,2.30706655 C31.6811897,2.35869265 31.5837998,2.45498503 31.5338567,2.58370695 L28.5526132,10.4522573 C28.5690746,10.559789 28.6197922,10.6560419 28.6932775,10.7295271 C28.7837597,10.8200093 28.9087597,10.8759737 29.0468309,10.8759737 L35.2025113,10.8094458 C35.297077,10.7552057 35.3686608,10.6729728 35.4106696,10.5776994 C35.4622958,10.4606148 35.4692556,10.3238355 35.4193124,10.1951136 L32.4661433,2.58370695 C32.4153386,2.45276453 32.3118026,2.34922845 31.7982743,2.30706655 Z" id="Rectangle"></path>
            <path d="M6.41896398,27.6863769 C6.30187938,27.738003 6.20448947,27.8342954 6.15454632,27.9630173 L3.17330285,35.8315676 C3.18976424,35.9390994 3.2404819,36.0353522 3.31396716,36.1088375 C3.40444937,36.1993197 3.52944937,36.2552841 3.66752055,36.2552841 L9.823201,36.1887561 C9.91776668,36.134516 9.98935043,36.0522831 10.0313593,35.9570098 C10.0829854,35.8399252 10.0899452,35.7031459 10.0400021,35.574424 L7.08683299,27.9630173 C7.03602831,27.8320749 6.93249222,27.7285388 6.41896398,27.6863769 Z" id="Rectangle" transform="translate(6.620690, 31.067297) rotate(-90.000000) translate(-6.620690, -31.067297) "></path>
            <path d="M57.1775847,27.6863769 C57.0605001,27.738003 56.9631102,27.8342954 56.913167,27.9630173 L53.9319235,35.8315676 C53.9483849,35.9390994 53.9991026,36.0353522 54.0725879,36.1088375 C54.1630701,36.1993197 54.2880701,36.2552841 54.4261412,36.2552841 L60.5818217,36.1887561 C60.6763874,36.134516 60.7479711,36.0522831 60.78998,35.9570098 C60.8416061,35.8399252 60.8485659,35.7031459 60.7986228,35.574424 L57.8454537,27.9630173 C57.794649,27.8320749 57.6911129,27.7285388 57.1775847,27.6863769 Z" id="Rectangle" transform="translate(57.379310, 31.067297) rotate(90.000000) translate(-57.379310, -31.067297) "></path>
            <path d="M31.7982743,53.0656872 C31.6811897,53.1173133 31.5837998,53.2136057 31.5338567,53.3423276 L28.5526132,61.2108779 C28.5690746,61.3184097 28.6197922,61.4146626 28.6932775,61.4881478 C28.7837597,61.57863 28.9087597,61.6345944 29.0468309,61.6345944 L35.2025113,61.5680664 C35.297077,61.5138264 35.3686608,61.4315935 35.4106696,61.3363201 C35.4622958,61.2192355 35.4692556,61.0824562 35.4193124,60.9537343 L32.4661433,53.3423276 C32.4153386,53.2113852 32.3118026,53.1078491 31.7982743,53.0656872 Z" id="Rectangle" transform="translate(32.000000, 56.446608) rotate(180.000000) translate(-32.000000, -56.446608) "></path>
            <path d="M14.1431019,10.0312045 C14.0260173,10.0828306 13.9286274,10.179123 13.8786843,10.3078449 L10.8974408,18.1763952 C10.9139022,18.283927 10.9646198,18.3801798 11.0381051,18.4536651 C11.1285873,18.5441473 11.2535873,18.6001117 11.3916585,18.6001117 L17.5473389,18.5335837 C17.6419046,18.4793436 17.7134884,18.3971107 17.7554972,18.3018374 C17.8071233,18.1847528 17.8140832,18.0479735 17.76414,17.9192515 L14.8109709,10.3078449 C14.7601662,10.1769025 14.6566302,10.0733664 14.1431019,10.0312045 Z" id="Rectangle" transform="translate(14.344828, 13.412125) rotate(-45.000000) translate(-14.344828, -13.412125) "></path>
            <path d="M49.4534467,10.0312045 C49.3363621,10.0828306 49.2389722,10.179123 49.1890291,10.3078449 L46.2077856,18.1763952 C46.224247,18.283927 46.2749647,18.3801798 46.3484499,18.4536651 C46.4389321,18.5441473 46.5639321,18.6001117 46.7020033,18.6001117 L52.8576838,18.5335837 C52.9522494,18.4793436 53.0238332,18.3971107 53.0658421,18.3018374 C53.1174682,18.1847528 53.124428,18.0479735 53.0744849,17.9192515 L50.1213157,10.3078449 C50.0705111,10.1769025 49.966975,10.0733664 49.4534467,10.0312045 Z" id="Rectangle" transform="translate(49.655172, 13.412125) rotate(45.000000) translate(-49.655172, -13.412125) "></path>
            <path d="M49.6043088,45.394351 C49.4872242,45.4459771 49.3898343,45.5422695 49.3398911,45.6709914 L46.3586477,53.5395417 C46.3751091,53.6470735 46.4258267,53.7433264 46.499312,53.8168116 C46.5897942,53.9072938 46.7147942,53.9632582 46.8528654,53.9632582 L53.0085458,53.8967302 C53.1031115,53.8424902 53.1746953,53.7602573 53.2167041,53.6649839 C53.2683302,53.5478993 53.2752901,53.41112 53.2253469,53.2823981 L50.2721778,45.6709914 C50.2213731,45.540049 50.117837,45.4365129 49.6043088,45.394351 Z" id="Rectangle" transform="translate(49.806034, 48.775271) rotate(135.000000) translate(-49.806034, -48.775271) "></path>
            <path d="M14.1431019,45.3415493 C14.0260173,45.3931754 13.9286274,45.4894678 13.8786843,45.6181897 L10.8974408,53.48674 C10.9139022,53.5942718 10.9646198,53.6905246 11.0381051,53.7640099 C11.1285873,53.8544921 11.2535873,53.9104565 11.3916585,53.9104565 L17.5473389,53.8439285 C17.6419046,53.7896884 17.7134884,53.7074555 17.7554972,53.6121822 C17.8071233,53.4950976 17.8140832,53.3583183 17.76414,53.2295964 L14.8109709,45.6181897 C14.7601662,45.4872473 14.6566302,45.3837112 14.1431019,45.3415493 Z" id="Rectangle" transform="translate(14.344828, 48.722470) rotate(-135.000000) translate(-14.344828, -48.722470) "></path>
        </g>
    </g>
</svg>