<?xml version="1.0" encoding="UTF-8"?>
<svg width="64px" height="64px" viewBox="0 0 64 64" version="1.1" xmlns="http://www.w3.org/2000/svg" xmlns:xlink="http://www.w3.org/1999/xlink">
    <title>day2</title>
    <g id="day2" stroke="none" stroke-width="1" fill="none" fill-rule="evenodd">
        <circle id="Oval" fill="#51ACFF" cx="32" cy="32" r="32"></circle>
        <g id="Group-10" transform="translate(2.000000, 3.000000)" fill="#FFD33A">
            <circle id="Oval" cx="30" cy="28.9655172" r="16.5517241"></circle>
            <path d="M30.9322867,2.40284681 L33.6095937,9.3032551 C33.8093663,9.81814281 33.553915,10.3974895 33.0390273,10.5972621 C32.923681,10.6420156 32.8010311,10.6649754 32.677307,10.6649754 L27.322693,10.6649754 C26.7704082,10.6649754 26.322693,10.2172601 26.322693,9.66497539 C26.322693,9.54125128 26.3456528,9.41860144 26.3904063,9.3032551 L29.0677133,2.40284681 C29.2674859,1.8879591 29.8468326,1.63250783 30.3617203,1.83228043 C30.6236051,1.9338898 30.8306773,2.14096197 30.9322867,2.40284681 Z" id="Rectangle"></path>
            <path d="M7.13918322,26.1959503 L9.81649026,33.0963586 C10.0162629,33.6112463 9.76081158,34.1905929 9.24592387,34.3903655 C9.13057753,34.435119 9.0079277,34.4580788 8.88420359,34.4580788 L3.52958952,34.4580788 C2.97730477,34.4580788 2.52958952,34.0103636 2.52958952,33.4580788 C2.52958952,33.3343547 2.55254933,33.2117049 2.59730285,33.0963586 L5.27460988,26.1959503 C5.47438248,25.6810625 6.05372913,25.4256113 6.56861684,25.6253839 C6.83050168,25.7269932 7.03757385,25.9340654 7.13918322,26.1959503 Z" id="Rectangle" transform="translate(6.206897, 29.125591) rotate(-90.000000) translate(-6.206897, -29.125591) "></path>
            <path d="M54.7253901,26.1959503 L57.4026972,33.0963586 C57.6024697,33.6112463 57.3470185,34.1905929 56.8321308,34.3903655 C56.7167844,34.435119 56.5941346,34.4580788 56.4704105,34.4580788 L51.1157964,34.4580788 C50.5635117,34.4580788 50.1157964,34.0103636 50.1157964,33.4580788 C50.1157964,33.3343547 50.1387562,33.2117049 50.1835097,33.0963586 L52.8608168,26.1959503 C53.0605894,25.6810625 53.639936,25.4256113 54.1548237,25.6253839 C54.4167086,25.7269932 54.6237807,25.9340654 54.7253901,26.1959503 Z" id="Rectangle" transform="translate(53.793103, 29.125591) rotate(90.000000) translate(-53.793103, -29.125591) "></path>
            <path d="M30.9322867,49.9890537 L33.6095937,56.889462 C33.8093663,57.4043497 33.553915,57.9836964 33.0390273,58.183469 C32.923681,58.2282225 32.8010311,58.2511823 32.677307,58.2511823 L27.322693,58.2511823 C26.7704082,58.2511823 26.322693,57.803467 26.322693,57.2511823 C26.322693,57.1274582 26.3456528,57.0048083 26.3904063,56.889462 L29.0677133,49.9890537 C29.2674859,49.474166 29.8468326,49.2187147 30.3617203,49.4184873 C30.6236051,49.5200967 30.8306773,49.7271689 30.9322867,49.9890537 Z" id="Rectangle" transform="translate(30.000000, 52.918695) rotate(180.000000) translate(-30.000000, -52.918695) "></path>
            <path d="M14.3805625,9.64422612 L17.0578696,16.5446344 C17.2576422,17.0595221 17.0021909,17.6388688 16.4873032,17.8386414 C16.3719568,17.8833949 16.249307,17.9063547 16.1255829,17.9063547 L10.7709688,17.9063547 C10.2186841,17.9063547 9.77096883,17.4586394 9.77096883,16.9063547 C9.77096883,16.7826306 9.79392864,16.6599808 9.83868216,16.5446344 L12.5159892,9.64422612 C12.7157618,9.12933841 13.2951084,8.87388714 13.8099961,9.07365974 C14.071881,9.17526911 14.2789532,9.38234128 14.3805625,9.64422612 Z" id="Rectangle" transform="translate(13.448276, 12.573867) rotate(-45.000000) translate(-13.448276, -12.573867) "></path>
            <path d="M47.4840108,9.64422612 L50.1613178,16.5446344 C50.3610904,17.0595221 50.1056392,17.6388688 49.5907515,17.8386414 C49.4754051,17.8833949 49.3527553,17.9063547 49.2290312,17.9063547 L43.8744171,17.9063547 C43.3221324,17.9063547 42.8744171,17.4586394 42.8744171,16.9063547 C42.8744171,16.7826306 42.8973769,16.6599808 42.9421304,16.5446344 L45.6194375,9.64422612 C45.8192101,9.12933841 46.3985567,8.87388714 46.9134444,9.07365974 C47.1753293,9.17526911 47.3824014,9.38234128 47.4840108,9.64422612 Z" id="Rectangle" transform="translate(46.551724, 12.573867) rotate(45.000000) translate(-46.551724, -12.573867) "></path>
            <path d="M47.625444,42.797176 L50.302751,49.6975843 C50.5025236,50.212472 50.2470724,50.7918187 49.7321846,50.9915913 C49.6168383,51.0363448 49.4941885,51.0593046 49.3704644,51.0593046 L44.0158503,51.0593046 C43.4635655,51.0593046 43.0158503,50.6115893 43.0158503,50.0593046 C43.0158503,49.9355805 43.0388101,49.8129306 43.0835636,49.6975843 L45.7608707,42.797176 C45.9606433,42.2822883 46.5399899,42.026837 47.0548776,42.2266096 C47.3167625,42.328219 47.5238346,42.5352912 47.625444,42.797176 Z" id="Rectangle" transform="translate(46.693157, 45.726817) rotate(135.000000) translate(-46.693157, -45.726817) "></path>
            <path d="M14.3805625,42.7476744 L17.0578696,49.6480827 C17.2576422,50.1629704 17.0021909,50.742317 16.4873032,50.9420896 C16.3719568,50.9868432 16.249307,51.009803 16.1255829,51.009803 L10.7709688,51.009803 C10.2186841,51.009803 9.77096883,50.5620877 9.77096883,50.009803 C9.77096883,49.8860789 9.79392864,49.763429 9.83868216,49.6480827 L12.5159892,42.7476744 C12.7157618,42.2327867 13.2951084,41.9773354 13.8099961,42.177108 C14.071881,42.2787174 14.2789532,42.4857896 14.3805625,42.7476744 Z" id="Rectangle" transform="translate(13.448276, 45.677315) rotate(-135.000000) translate(-13.448276, -45.677315) "></path>
        </g>
    </g>
</svg>