<?xml version="1.0" encoding="UTF-8"?>
<svg width="64px" height="64px" viewBox="0 0 64 64" version="1.1" xmlns="http://www.w3.org/2000/svg" xmlns:xlink="http://www.w3.org/1999/xlink">
    <title>night2</title>
    <g id="night2" stroke="none" stroke-width="1" fill="none" fill-rule="evenodd">
        <circle id="Oval" fill="#666666" cx="32" cy="32" r="32"></circle>
        <path d="M22.942844,24.5534632 C22.942844,35.2756663 31.3934608,43.9677293 41.817825,43.9677293 C45.2266777,43.9677293 48.4244691,43.0382489 51.1847131,41.4122451 C47.7748475,48.649016 40.2751011,53.6748623 31.5714067,53.6748623 C19.6578478,53.6748623 10,44.2584607 10,32.6427407 C10,22.4109704 17.4935853,13.8856651 27.4216817,11.9994222 C24.6275853,15.3832501 22.942844,19.7659891 22.942844,24.5534632 Z" id="Combined-Shape" fill="#FFD955"></path>
        <polygon id="Rectangle" fill="#FFFFFF" transform="translate(43.078191, 23.107114) rotate(44.000000) translate(-43.078191, -23.107114) " points="36.4464211 16 43.9257938 20.1313877 50.1563825 16.5435688 46.6382855 22.940255 49.9281527 29.9607417 43.2330827 26.2286212 36 30.2142285 40.520591 23.4197539"></polygon>
    </g>
</svg>