<?xml version="1.0" encoding="UTF-8"?>
<svg width="64px" height="64px" viewBox="0 0 64 64" version="1.1" xmlns="http://www.w3.org/2000/svg" xmlns:xlink="http://www.w3.org/1999/xlink">
    <title>night</title>
    <g id="night" stroke="none" stroke-width="1" fill="none" fill-rule="evenodd">
        <path d="M27.6163533,7.76287582 C22.3233744,8.94993259 17.679962,11.8011087 14.2949611,15.7227333 C10.6793958,19.9114735 8.5,25.3219377 8.5,31.2297449 C8.5,37.8775974 11.2596656,43.8955371 15.7197328,48.2518819 C20.1841084,52.6124348 26.3518494,55.3085292 33.1639935,55.3085292 C38.075512,55.3085292 42.6519968,53.9071356 46.4966684,51.4907021 C50.0376498,49.2651423 52.9580058,46.1787657 54.9468605,42.5338714 C52.0577995,43.8628888 48.8421896,44.6043462 45.4533856,44.6043462 C39.1744747,44.6043462 33.4899878,42.0593147 29.3752286,37.9445555 C25.2604694,33.8297963 22.7154379,28.1453094 22.7154379,21.8663985 C22.7154379,16.5388475 24.5476963,11.6392568 27.6163533,7.76287582 Z" id="Combined-Shape" stroke="#D9A800" fill="#FFD955"></path>
        <path d="M40.7153666,11.2721364 L44.1046357,17.4445699 L40.5478473,22.7904437 L46.2344861,19.6569652 L51.8176327,22.7692517 L49.0776183,16.9221358 L51.8568563,11.8688602 L46.9309038,14.7054181 L40.7153666,11.2721364 Z" id="Rectangle" stroke="#68CAFF" fill="#AFDFFF" transform="translate(46.078191, 17.107114) rotate(44.000000) translate(-46.078191, -17.107114) "></path>
    </g>
</svg>