<?xml version="1.0" encoding="UTF-8"?>
<svg width="32px" height="32px" viewBox="0 0 32 32" version="1.1" xmlns="http://www.w3.org/2000/svg" xmlns:xlink="http://www.w3.org/1999/xlink">
    <title>storm</title>
    <g id="storm" stroke="none" stroke-width="1" fill="none" fill-rule="evenodd">
        <path d="M5.33333333,26.3333333 C2.38781467,26.3333333 0,23.9455187 0,21 C0,18.0544813 2.38781467,15.6666667 5.33333333,15.6666667 C5.3530817,15.6666667 5.37280499,15.666774 5.39250267,15.6669881 C5.35324354,15.3170646 5.33333333,14.9608574 5.33333333,14.6 C5.33333333,9.2980664 9.63139974,5 14.9333333,5 C19.120707,5 22.6819123,7.68094548 23.9941224,11.4200097 C24.1718406,11.4064761 24.3518307,11.4 24.5333333,11.4 C28.6570595,11.4 32,14.7429405 32,18.8666667 C32,22.9903928 28.6570595,26.3333333 24.5333333,26.3333333 L24.5333333,26.3333333 Z" id="Combined-Shape" fill="#BC00FF"></path>
        <path d="M14,11.2505255 C14,9.72428827 14.6666667,9 16,9 C17.3333333,9 18,10.034464 18,11.2505255 C18,12.0612332 17.7777778,14.0409 17.3333333,17.1895259 C17.3333333,17.729842 16.8888889,18 16,18 C15.1111111,18 14.6666667,17.729842 14.6666667,17.1895259 C14.2222222,14.2476838 14,12.268017 14,11.2505255 Z" id="Rectangle" fill="#FFFFFF"></path>
        <circle id="Oval" fill="#FFFFFF" cx="16" cy="22" r="2"></circle>
    </g>
</svg>