<?xml version="1.0" encoding="UTF-8"?>
<svg width="20px" height="20px" viewBox="0 0 20 20" version="1.1" xmlns="http://www.w3.org/2000/svg" xmlns:xlink="http://www.w3.org/1999/xlink">
    <title>park 2</title>
    <g id="Page-1" stroke="none" stroke-width="1" fill="none" fill-rule="evenodd">
        <g id="murm" transform="translate(-33.000000, -256.000000)">
            <g id="vchd" transform="translate(21.000000, 2.000000)">
                <g id="legend" transform="translate(0.000000, 76.000000)">
                    <g id="park-2" transform="translate(12.000000, 178.000000)">
                        <g id="park">
                            <rect id="Rectangle" fill="#4681CC" x="0" y="0" width="20" height="20" rx="3"></rect>
                            <path d="M10.602,16 C11.2253333,16 11.8118333,15.932 12.3615,15.796 C12.9111667,15.66 13.3928333,15.4503333 13.8065,15.167 C14.2201667,14.8836667 14.546,14.5266667 14.784,14.096 C15.022,13.6653333 15.141,13.161 15.141,12.583 C15.141,12.1636667 15.0758333,11.7868333 14.9455,11.4525 C14.8151667,11.1181667 14.6338333,10.8291667 14.4015,10.5855 C14.1691667,10.3418333 13.8943333,10.1435 13.577,9.9905 C13.2596667,9.8375 12.9196667,9.73266667 12.557,9.676 L12.557,9.676 L12.557,9.642 C13.169,9.472 13.662,9.16033333 14.036,8.707 C14.41,8.25366667 14.597,7.704 14.597,7.058 C14.597,6.446 14.4751667,5.94166667 14.2315,5.545 C13.9878333,5.14833333 13.6761667,4.83383333 13.2965,4.6015 C12.9168333,4.36916667 12.489,4.20483333 12.013,4.1085 C11.537,4.01216667 11.0666667,3.964 10.602,3.964 L10.602,3.964 L6.369,3.964 L6.369,16 L10.602,16 Z M10.415,8.979 L8.443,8.979 L8.443,5.698 L10.194,5.698 C10.8853333,5.698 11.4463333,5.82266667 11.877,6.072 C12.3076667,6.32133333 12.523,6.72933333 12.523,7.296 C12.523,7.602 12.4663333,7.85983333 12.353,8.0695 C12.2396667,8.27916667 12.0866667,8.452 11.894,8.588 C11.7013333,8.724 11.4775,8.82316667 11.2225,8.8855 C10.9675,8.94783333 10.6983333,8.979 10.415,8.979 L10.415,8.979 Z M10.364,14.249 L8.443,14.249 L8.443,10.594 L10.466,10.594 C11.248,10.594 11.8656667,10.7328333 12.319,11.0105 C12.7723333,11.2881667 12.999,11.75 12.999,12.396 C12.999,12.7473333 12.9225,13.042 12.7695,13.28 C12.6165,13.518 12.4181667,13.7078333 12.1745,13.8495 C11.9308333,13.9911667 11.6503333,14.0931667 11.333,14.1555 C11.0156667,14.2178333 10.6926667,14.249 10.364,14.249 L10.364,14.249 Z" id="Ğ’" fill="#FFFFFF" fill-rule="nonzero"></path>
                        </g>
                    </g>
                </g>
            </g>
        </g>
    </g>
</svg>