<?xml version="1.0" encoding="UTF-8"?>
<svg width="20px" height="20px" viewBox="0 0 20 20" version="1.1" xmlns="http://www.w3.org/2000/svg" xmlns:xlink="http://www.w3.org/1999/xlink">
    <title>pto</title>
    <g id="Page-1" stroke="none" stroke-width="1" fill="none" fill-rule="evenodd">
        <g id="pto" transform="translate(-1.000000, -1.000000)">
            <rect id="Rectangle" fill="#58C340" x="1" y="1" width="20" height="20" rx="3"></rect>
            <path d="M13.5109935,3.51045424 C14.5300685,3.8433993 15.4590985,4.37544677 16.2521248,5.06063792 L15.9149105,8.15488137 L18.8503429,9.44880555 C18.964406,9.9867105 19.0244141,10.5445842 19.0244141,11.1164736 C19.0244141,11.5821246 18.9846302,12.0384835 18.9082761,12.4823369 L15.9149105,13.8019402 L16.2793418,17.1486865 C15.547105,17.7871054 14.6975443,18.2943772 13.7672701,18.6338915 L11.0244141,16.6254696 L8.28155802,18.6338915 C7.35128378,18.2943772 6.50172314,17.7871054 5.76948634,17.1486865 L6.13391766,13.8019402 L3.14055203,12.4823369 C3.06419792,12.0384835 3.02441406,11.5821246 3.02441406,11.1164736 C3.02441406,10.5445842 3.08442216,9.9867105 3.19848521,9.44880555 L6.13391766,8.15488137 L5.79670335,5.06063792 C6.58972959,4.37544677 7.51875958,3.8433993 8.53783459,3.51045424 L11.0244141,5.33135195 L13.5109935,3.51045424 Z M11.0244141,9.09605784 C9.98481924,9.09605784 9.14206112,9.93881595 9.14206112,10.9784108 C9.14206112,12.0180056 9.98481924,12.8607637 11.0244141,12.8607637 C12.0640089,12.8607637 12.906767,12.0180056 12.906767,10.9784108 C12.906767,9.93881595 12.0640089,9.09605784 11.0244141,9.09605784 Z" id="Combined-Shape" fill="#FFFFFF" transform="translate(11.024414, 11.072282) rotate(-30.000000) translate(-11.024414, -11.072282) "></path>
        </g>
    </g>
</svg>