<?xml version="1.0" encoding="UTF-8"?>
<svg width="28px" height="28px" viewBox="0 0 28 28" version="1.1" xmlns="http://www.w3.org/2000/svg" xmlns:xlink="http://www.w3.org/1999/xlink">
    <title>oneu</title>
    <g id="Page-1" stroke="none" stroke-width="1" fill="none" fill-rule="evenodd">
        <g id="oneu">
            <circle id="Oval" fill="#616161" cx="14" cy="14" r="14"></circle>
            <path d="M14.5833333,3.08333333 C13.9706392,3.08333333 13.4046525,3.28354181 12.9476523,3.62235472 C12.4791929,3.96966338 12.1247475,4.46209939 11.4515145,5.53417538 C10.8796,5.70735597 10.3867246,6.0620962 10.0391678,6.53083545 C9.70023018,6.9879503 9.5,7.55395121 9.5,8.16666667 C9.5,8.42624401 9.53579431,8.6774509 9.60346882,8.9148185 C9.65642627,9.10056618 9.73043965,9.28321949 9.82572063,9.45956273 C9.63768669,9.54889205 9.45423065,9.64864385 9.27639944,9.75850774 C7.66043348,10.7568494 6.58333333,12.5442351 6.58333333,14.5833333 C6.58333333,16.0546286 7.14400835,17.394996 8.06346843,18.4023042 C9.13429481,19.5754407 10.6914996,20.2973962 12.4164764,20.2475213 L12.6666667,24.9166667 L16.75,24.6666667 L16.7504066,20.246872 C18.1506357,20.2978408 19.4141182,19.7079888 20.2722364,18.7484348 C20.9840186,17.9525147 21.4166667,16.9017678 21.4166667,15.75 C21.4166667,14.3925054 20.8155272,13.1754458 19.6177086,11.6564493 C19.6499234,11.4702412 19.6666667,11.2787452 19.6666667,11.0833333 C19.6666667,10.3809126 19.4495876,9.72913599 19.078401,9.19198931 C18.6964437,8.63925621 18.1518569,8.20750958 17.5134478,7.96677271 C17.1998542,7.84852013 16.8728307,7.77982827 16.5439818,7.759849 C16.7794274,7.52139165 16.9631087,7.24916405 17.0938332,6.95790434 C17.2479078,6.61461975 17.3333333,6.23394454 17.3333333,5.83333333 C17.3333333,5.0739418 17.0255291,4.3864418 16.527877,3.88878969 C16.0302249,3.39113757 15.3427249,3.08333333 14.5833333,3.08333333 Z" id="Combined-Shape" stroke="#FFFFFF" stroke-width="1.5" fill="#DA4EFF"></path>
        </g>
    </g>
</svg>