<?xml version="1.0" encoding="utf-8"?><svg xmlns="http://www.w3.org/2000/svg" xmlns:xlink="http://www.w3.org/1999/xlink">
<symbol class="asvg-inline--fa afa-map-marker-alt afa-w-12" viewBox="0 0 384 512" id="point-alt" xmlns="http://www.w3.org/2000/svg">
    <path fill="currentColor" d="M172.268 501.67C26.97 291.031 0 269.413 0 192 0 85.961 85.961 0 192 0s192 85.961 192 192c0 77.413-26.97 99.031-172.268 309.67-9.535 13.774-29.93 13.773-39.464 0zM192 272c44.183 0 80-35.817 80-80s-35.817-80-80-80-80 35.817-80 80 35.817 80 80 80z"/>
</symbol><symbol class="bsvg-inline--fa bfa-map-marker bfa-w-12" viewBox="0 0 384 512" id="point-fill" xmlns="http://www.w3.org/2000/svg">
    <path fill="currentColor" d="M172.268 501.67C26.97 291.031 0 269.413 0 192 0 85.961 85.961 0 192 0s192 85.961 192 192c0 77.413-26.97 99.031-172.268 309.67-9.535 13.774-29.93 13.773-39.464 0z"/>
</symbol><symbol viewBox="0 0 32 32" id="point-gps" xmlns="http://www.w3.org/2000/svg">
    <g transform="translate(4.5)" fill="none" fill-rule="evenodd">
        <path d="M11.333 31.686c.667 0 11.334-14.093 11.334-20.353C22.667 5.074 17.593 0 11.333 0 5.074 0 0 5.074 0 11.333c0 6.26 10.667 20.353 11.333 20.353z" fill="#FF5050"/>
        <circle fill="#FFF" cx="11.333" cy="11.333" r="7.333"/>
    </g>
</symbol><symbol viewBox="0 0 23 32" id="point-gps2" xmlns="http://www.w3.org/2000/svg">
    <g fill="none" fill-rule="evenodd">
        <path d="M11.333 31.686c.667 0 11.334-14.093 11.334-20.353C22.667 5.074 17.593 0 11.333 0 5.074 0 0 5.074 0 11.333c0 6.26 10.667 20.353 11.333 20.353z" fill="#FF5050"/>
        <circle fill="#FFF" cx="11.333" cy="11.333" r="7.333"/>
    </g>
</symbol><symbol viewBox="0 0 20 20" id="point-org" xmlns="http://www.w3.org/2000/svg">
    <g transform="translate(3)" fill="none" fill-rule="evenodd">
        <path d="M7 19.571c.412 0 7-8.705 7-12.571A7 7 0 000 7c0 3.866 6.588 12.571 7 12.571z" fill="#FF5050"/>
        <circle fill="#FFF" cx="7" cy="7" r="4.529"/>
    </g>
</symbol>
  <symbol xmlns="http://www.w3.org/2000/svg" viewBox="0 0 16 16" id="pointer2">
        <path d="M8.68235695,3.6169997 L14.019026,11.9184848 C14.6163303,12.8476249 14.3473243,14.0850526 13.4181842,14.682357 C13.0955895,14.8897392 12.7201722,15 12.336669,15 L1.663331,15 C0.558761497,15 -0.336669003,14.1045695 -0.336669003,13 C-0.336669003,12.6164968 -0.226408243,12.2410795 -0.019025954,11.9184848 L5.31764305,3.6169997 C5.91494739,2.68785961 7.15237509,2.41885359 8.08151518,3.01615793 C8.32252048,3.17108991 8.52742497,3.3759944 8.68235695,3.6169997 Z" id="Triangle" fill="#FE0BDD" transform="translate(7.000000, 8.000000) rotate(90.000000) translate(-7.000000, -8.000000) "></path>
  </symbol>
</svg>