<?xml version="1.0" encoding="utf-8"?><svg xmlns="http://www.w3.org/2000/svg" xmlns:xlink="http://www.w3.org/1999/xlink"><symbol viewBox="0 0 24 24" id="clbld_hoz" xmlns="http://www.w3.org/2000/svg">
    <g id="aPage-1" stroke="none" stroke-width="1" fill="none" fill-rule="evenodd">
        <g id="aGroup-112">
            <rect id="aRectangle" fill="#43AD24" x="0" y="0" width="24" height="24" rx="4"/>
            <path d="M19.5 1.5a3 3 0 013 3v11.822c-.583 1.452-1.431 2.178-2.544 2.178-.65 0-1.21-.248-1.68-.744l-.138-.156a1 1 0 00-1.515-.03c-.555.62-1.225.93-2.01.93a2.465 2.465 0 01-1.793-.734l-.146-.155a1 1 0 00-1.514.02c-.486.58-1.084.869-1.793.869-.656 0-1.227-.248-1.714-.745l-.143-.157a1 1 0 00-1.511-.006A2.542 2.542 0 014 18.5c-1.244 0-2.077-.726-2.5-2.178V4.5a3 3 0 013-3h15zm-7.505 2c-2.13 4.02-3.332 6.413-3.606 7.18-.41 1.151-.104 4.717 3.606 4.717s4.066-3.565 3.586-4.717c-.32-.768-1.515-3.161-3.586-7.18z" id="aCombined-Shape" fill="#FFF"/>
        </g>
    </g>
</symbol><symbol viewBox="0 0 24 24" id="clbld_liv" xmlns="http://www.w3.org/2000/svg">
    <g id="bPage-1" stroke="none" stroke-width="1" fill="none" fill-rule="evenodd">
        <g id="bGroup-112">
            <rect id="bRectangle" fill="#0068FF" x="0" y="0" width="24" height="24" rx="4"/>
            <path d="M19.5 1.5a3 3 0 013 3v11.822c-.583 1.452-1.431 2.178-2.544 2.178-.65 0-1.21-.248-1.68-.744l-.138-.156a1 1 0 00-1.515-.03c-.555.62-1.225.93-2.01.93a2.465 2.465 0 01-1.793-.734l-.146-.155a1 1 0 00-1.514.02c-.486.58-1.084.869-1.793.869-.656 0-1.227-.248-1.714-.745l-.143-.157a1 1 0 00-1.511-.006A2.542 2.542 0 014 18.5c-1.244 0-2.077-.726-2.5-2.178V4.5a3 3 0 013-3h15zm-7.505 2c-2.13 4.02-3.332 6.413-3.606 7.18-.41 1.151-.104 4.717 3.606 4.717s4.066-3.565 3.586-4.717c-.32-.768-1.515-3.161-3.586-7.18z" id="bCombined-Shape" fill="#FFF"/>
        </g>
    </g>
</symbol><symbol viewBox="0 0 24 24" id="clbld_liv_hoz" xmlns="http://www.w3.org/2000/svg">
    <g id="cPage-1" stroke="none" stroke-width="1" fill="none" fill-rule="evenodd">
        <g id="cGroup-112">
            <rect id="cRectangle" fill="#0068FF" x="0" y="0" width="24" height="24" rx="4"/>
            <rect fill="#43AD24" x="7" y="3" width="10" height="13" rx="4"/>
            <path d="M19.5 1.5a3 3 0 013 3v11.822c-.583 1.452-1.431 2.178-2.544 2.178-.65 0-1.21-.248-1.68-.744l-.138-.156a1 1 0 00-1.515-.03c-.555.62-1.225.93-2.01.93a2.465 2.465 0 01-1.793-.734l-.146-.155a1 1 0 00-1.514.02c-.486.58-1.084.869-1.793.869-.656 0-1.227-.248-1.714-.745l-.143-.157a1 1 0 00-1.511-.006A2.542 2.542 0 014 18.5c-1.244 0-2.077-.726-2.5-2.178V4.5a3 3 0 013-3h15zm-7.505 2c-2.13 4.02-3.332 6.413-3.606 7.18-.41 1.151-.104 4.717 3.606 4.717s4.066-3.565 3.586-4.717c-.32-.768-1.515-3.161-3.586-7.18z" id="cCombined-Shape" fill="#FFF"/>
        </g>
    </g>
</symbol><symbol viewBox="0 0 24 24" id="clbld_liv_hoz_przv" xmlns="http://www.w3.org/2000/svg">
    <g id="dPage-1" stroke="none" stroke-width="1" fill="none" fill-rule="evenodd">
        <g id="dGroup-112">
            <rect id="dRectangle" fill="#056DF0" x="0" y="0" width="24" height="24" rx="4"/>
            <path d="M4.5 3h15a3 3 0 013 3v12.822C21.917 20.274 21.069 21 19.956 21c-.715 0-1.321-.3-1.818-.9a1 1 0 00-1.515-.03c-.555.62-1.225.93-2.01.93-.767 0-1.413-.296-1.939-.889a1 1 0 00-1.514.02c-.486.58-1.084.869-1.793.869-.722 0-1.34-.3-1.857-.902a1 1 0 00-1.511-.006A2.542 2.542 0 014 21c-1.244 0-2.077-.726-2.5-2.178V6a3 3 0 013-3z" fill="#3A3A3A"/>
            <rect fill="#43AD24" x="7" y="3" width="10" height="13" rx="4"/>
            <path d="M19.5 1.5a3 3 0 013 3v11.822c-.583 1.452-1.431 2.178-2.544 2.178-.65 0-1.21-.248-1.68-.744l-.138-.156a1 1 0 00-1.515-.03c-.555.62-1.225.93-2.01.93a2.465 2.465 0 01-1.793-.734l-.146-.155a1 1 0 00-1.514.02c-.486.58-1.084.869-1.793.869-.656 0-1.227-.248-1.714-.745l-.143-.157a1 1 0 00-1.511-.006A2.542 2.542 0 014 18.5c-1.244 0-2.077-.726-2.5-2.178V4.5a3 3 0 013-3h15zm-7.505 2c-2.13 4.02-3.332 6.413-3.606 7.18-.41 1.151-.104 4.717 3.606 4.717s4.066-3.565 3.586-4.717c-.32-.768-1.515-3.161-3.586-7.18z" id="dCombined-Shape" fill="#FFF"/>
        </g>
    </g>
</symbol><symbol viewBox="0 0 24 24" id="clbld_liv_prm" xmlns="http://www.w3.org/2000/svg">
    <g id="ePage-1" stroke="none" stroke-width="1" fill="none" fill-rule="evenodd">
        <g id="eGroup-112">
            <rect id="eRectangle" fill="#0068FF" x="0" y="0" width="24" height="24" rx="4"/>
            <rect fill="#3A3A3A" x="7" y="3" width="10" height="13" rx="4"/>
            <path d="M19.5 1.5a3 3 0 013 3v11.822c-.583 1.452-1.431 2.178-2.544 2.178-.65 0-1.21-.248-1.68-.744l-.138-.156a1 1 0 00-1.515-.03c-.555.62-1.225.93-2.01.93a2.465 2.465 0 01-1.793-.734l-.146-.155a1 1 0 00-1.514.02c-.486.58-1.084.869-1.793.869-.656 0-1.227-.248-1.714-.745l-.143-.157a1 1 0 00-1.511-.006A2.542 2.542 0 014 18.5c-1.244 0-2.077-.726-2.5-2.178V4.5a3 3 0 013-3h15zm-7.505 2c-2.13 4.02-3.332 6.413-3.606 7.18-.41 1.151-.104 4.717 3.606 4.717s4.066-3.565 3.586-4.717c-.32-.768-1.515-3.161-3.586-7.18z" id="eCombined-Shape" fill="#FFF"/>
        </g>
    </g>
</symbol><symbol viewBox="0 0 24 24" id="clbld_liv_przv" xmlns="http://www.w3.org/2000/svg">
    <g id="fPage-1" stroke="none" stroke-width="1" fill="none" fill-rule="evenodd">
        <g id="fGroup-112">
            <rect id="fRectangle" fill="#0068FF" x="0" y="0" width="24" height="24" rx="4"/>
            <rect fill="#6D6D6D" x="7" y="3" width="10" height="13" rx="4"/>
            <path d="M19.5 1.5a3 3 0 013 3v11.822c-.583 1.452-1.431 2.178-2.544 2.178-.65 0-1.21-.248-1.68-.744l-.138-.156a1 1 0 00-1.515-.03c-.555.62-1.225.93-2.01.93a2.465 2.465 0 01-1.793-.734l-.146-.155a1 1 0 00-1.514.02c-.486.58-1.084.869-1.793.869-.656 0-1.227-.248-1.714-.745l-.143-.157a1 1 0 00-1.511-.006A2.542 2.542 0 014 18.5c-1.244 0-2.077-.726-2.5-2.178V4.5a3 3 0 013-3h15zm-7.505 2c-2.13 4.02-3.332 6.413-3.606 7.18-.41 1.151-.104 4.717 3.606 4.717s4.066-3.565 3.586-4.717c-.32-.768-1.515-3.161-3.586-7.18z" id="fCombined-Shape" fill="#FFF"/>
        </g>
    </g>
</symbol><symbol viewBox="0 0 24 24" id="clbld_prm" xmlns="http://www.w3.org/2000/svg">
    <g id="gPage-1" stroke="none" stroke-width="1" fill="none" fill-rule="evenodd">
        <g id="gGroup-112">
            <rect id="gRectangle" fill="#3A3A3A" x="0" y="0" width="24" height="24" rx="4"/>
            <path d="M19.5 1.5a3 3 0 013 3v11.822c-.583 1.452-1.431 2.178-2.544 2.178-.65 0-1.21-.248-1.68-.744l-.138-.156a1 1 0 00-1.515-.03c-.555.62-1.225.93-2.01.93a2.465 2.465 0 01-1.793-.734l-.146-.155a1 1 0 00-1.514.02c-.486.58-1.084.869-1.793.869-.656 0-1.227-.248-1.714-.745l-.143-.157a1 1 0 00-1.511-.006A2.542 2.542 0 014 18.5c-1.244 0-2.077-.726-2.5-2.178V4.5a3 3 0 013-3h15zm-7.505 2c-2.13 4.02-3.332 6.413-3.606 7.18-.41 1.151-.104 4.717 3.606 4.717s4.066-3.565 3.586-4.717c-.32-.768-1.515-3.161-3.586-7.18z" id="gCombined-Shape" fill="#FFF"/>
        </g>
    </g>
</symbol><symbol viewBox="0 0 24 24" id="clbld_prm_hoz" xmlns="http://www.w3.org/2000/svg">
    <g id="hPage-1" stroke="none" stroke-width="1" fill="none" fill-rule="evenodd">
        <g id="hGroup-112">
            <rect id="hRectangle" fill="#43AD24" x="0" y="0" width="24" height="24" rx="4"/>
            <rect fill="#3A3A3A" x="7" y="3" width="10" height="13" rx="4"/>
            <path d="M19.5 1.5a3 3 0 013 3v11.822c-.583 1.452-1.431 2.178-2.544 2.178-.65 0-1.21-.248-1.68-.744l-.138-.156a1 1 0 00-1.515-.03c-.555.62-1.225.93-2.01.93a2.465 2.465 0 01-1.793-.734l-.146-.155a1 1 0 00-1.514.02c-.486.58-1.084.869-1.793.869-.656 0-1.227-.248-1.714-.745l-.143-.157a1 1 0 00-1.511-.006A2.542 2.542 0 014 18.5c-1.244 0-2.077-.726-2.5-2.178V4.5a3 3 0 013-3h15zm-7.505 2c-2.13 4.02-3.332 6.413-3.606 7.18-.41 1.151-.104 4.717 3.606 4.717s4.066-3.565 3.586-4.717c-.32-.768-1.515-3.161-3.586-7.18z" id="hCombined-Shape" fill="#FFF"/>
        </g>
    </g>
</symbol><symbol viewBox="0 0 24 24" id="clbld_przv" xmlns="http://www.w3.org/2000/svg">
    <g id="iPage-1" stroke="none" stroke-width="1" fill="none" fill-rule="evenodd">
        <g id="iGroup-112">
            <rect id="iRectangle" fill="#6D6D6D" x="0" y="0" width="24" height="24" rx="4"/>
            <path d="M19.5 1.5a3 3 0 013 3v11.822c-.583 1.452-1.431 2.178-2.544 2.178-.65 0-1.21-.248-1.68-.744l-.138-.156a1 1 0 00-1.515-.03c-.555.62-1.225.93-2.01.93a2.465 2.465 0 01-1.793-.734l-.146-.155a1 1 0 00-1.514.02c-.486.58-1.084.869-1.793.869-.656 0-1.227-.248-1.714-.745l-.143-.157a1 1 0 00-1.511-.006A2.542 2.542 0 014 18.5c-1.244 0-2.077-.726-2.5-2.178V4.5a3 3 0 013-3h15zm-7.505 2c-2.13 4.02-3.332 6.413-3.606 7.18-.41 1.151-.104 4.717 3.606 4.717s4.066-3.565 3.586-4.717c-.32-.768-1.515-3.161-3.586-7.18z" id="iCombined-Shape" fill="#FFF"/>
        </g>
    </g>
</symbol><symbol viewBox="0 0 24 24" id="clbld_sm" xmlns="http://www.w3.org/2000/svg">
    <g id="jPage-1" stroke="none" stroke-width="1" fill="none" fill-rule="evenodd">
        <g id="jGroup-112">
            <rect id="jRectangle" fill="#A725D7" x="0" y="0" width="24" height="24" rx="4"/>
            <path d="M19.5 1.5a3 3 0 013 3v11.822c-.583 1.452-1.431 2.178-2.544 2.178-.65 0-1.21-.248-1.68-.744l-.138-.156a1 1 0 00-1.515-.03c-.555.62-1.225.93-2.01.93a2.465 2.465 0 01-1.793-.734l-.146-.155a1 1 0 00-1.514.02c-.486.58-1.084.869-1.793.869-.656 0-1.227-.248-1.714-.745l-.143-.157a1 1 0 00-1.511-.006A2.542 2.542 0 014 18.5c-1.244 0-2.077-.726-2.5-2.178V4.5a3 3 0 013-3h15zm-7.505 2c-2.13 4.02-3.332 6.413-3.606 7.18-.41 1.151-.104 4.717 3.606 4.717s4.066-3.565 3.586-4.717c-.32-.768-1.515-3.161-3.586-7.18z" id="jCombined-Shape" fill="#FFF"/>
        </g>
    </g>
</symbol></svg>